<?xml version="1.0" encoding="utf-8"?>
<!-- Generator: Adobe Illustrator 18.1.1, SVG Export Plug-In . SVG Version: 6.00 Build 0)  -->
<svg version="1.1" id="Layer_1" xmlns="http://www.w3.org/2000/svg" xmlns:xlink="http://www.w3.org/1999/xlink" x="0px" y="0px"
	 width="312.5px" height="150px" viewBox="-215.2 345.7 312.5 150" enable-background="new -215.2 345.7 312.5 150"
	 xml:space="preserve">
<path fill="#00A7D8" d="M-133.9,345.7c36.5,0,66.1,29.7,66.1,66.3c0,20.3-9.2,38.6-23.5,50.7c5.4-9.7,8.5-20.9,8.5-32.8
	c0-37-30.1-67.1-67.1-67.1c-14.8,0-28.5,4.9-39.5,12.9C-177.5,357.7-157,345.7-133.9,345.7L-133.9,345.7z"/>
<path fill="#AFCA0B" d="M-125.8,367.4c-7.5-2.9-15.6-4.6-24.1-4.6c-14.8,0-28.5,4.9-39.5,13c-7.3,10.6-11.7,23.5-11.7,37.4
	c0,28.5,18.1,52.8,43.3,62.1c7.5,2.9,15.6,4.6,24.3,4.6c14.8,0,28.5-4.9,39.5-12.9c7.3-10.6,11.5-23.5,11.7-37.4
	C-82.5,401-100.5,376.7-125.8,367.4L-125.8,367.4z"/>
<path fill="#FFFFFF" d="M-90.1,406.8c0,24-24.4,42.5-38.6,54.7h38.1l-1.2,2.2l-2.5,3.9l-3.7,3.5l-10,8.7h-47.8l-0.1-13.9
	c28.6-24.9,46.1-41.7,46.1-57.9c0-6-2.4-13.6-12.6-13.6c-8.1,0-16.1,4.7-14.7,24.5h-16.7c-4.2-23,8.4-41.2,32.2-41.2
	C-102.1,377.8-90.1,390-90.1,406.8L-90.1,406.8z"/>
<path fill="#FDE900" d="M-94.1,466.9c-11,8.1-24.8,12.9-39.5,12.9c-8.5,0-16.7-1.6-24.3-4.6c-25.3-9.2-43.3-33.6-43.3-62.1
	c0-13.6,4.2-26.4,11.3-37c-15.5,12.5-25.3,31.4-25.3,52.6c0,37,29.9,67.1,66.9,67.1c17.7,0,37.3-6,54.7-29.1c1.6-2,2.4-3.5,2.6-4.9
	C-92,463.6-92.9,465.3-94.1,466.9L-94.1,466.9z"/>
<polygon fill="#3C3C3B" points="29.4,474.9 13.7,474.9 13.7,384.1 29.4,384.1 "/>
<polygon fill="#3C3C3B" points="29.4,474.9 13.7,474.9 13.7,384.1 29.4,384.1 "/>
<path fill="#3C3C3B" d="M97.3,450.9c0-35.4-40.8-23.6-40.8-43.4c0-5.9,3.9-10.5,10.9-10.5c8.3,0,13.5,5.2,12.5,15.9h15.6
	C96.8,402.4,92.7,383,68,383c-15.4,0-27.8,7.5-27.8,24.1c0,34.3,40.8,23.1,40.6,43.7c-0.1,7.5-5.8,11.3-12.6,11.3
	c-7.5,0-13.6-4.7-12.6-17.7H39.9c-1.3,18.5,7,31.8,28.6,31.8C87,475.9,97.3,465.8,97.3,450.9L97.3,450.9z"/>
<path fill="#3C3C3B" d="M-15.6,412.4H0.3c0.5-10.2-3.4-29.8-28.5-29.8c-18.4,0-31.8,12.5-31.8,35.4c0,3.1,0.1,15.7,0.1,25.7
	c0,24.9,17.2,32.4,33.5,32.4c7,0,18-1.2,25.5-9.6v-38.5h-28.5v15.1h12.7v17.8c-9.6,3.3-27,4.1-27-18v-26.5c0-14.4,6.3-20.3,14-20.3
	C-21.4,396.1-15.6,401-15.6,412.4L-15.6,412.4z"/>
</svg>
