<svg xmlns="http://www.w3.org/2000/svg" viewBox="0 0 335.23 52.7"><defs><style>.cls-1{isolation:isolate;}.cls-2,.cls-5{fill:#297d7d;}.cls-2,.cls-3,.cls-4{mix-blend-mode:multiply;}.cls-3{fill:#1c344c;}.cls-4{fill:#c6dc72;}</style></defs><title>Atomist_Horiz_Logo_Compressed</title><g class="cls-1"><g id="Layer_2" data-name="Layer 2"><g id="Artwork"><path class="cls-2" d="M18.4,46.27,13.72,27.83A4.52,4.52,0,0,1,13.93,26l8-23.34A3.78,3.78,0,0,1,25.41,0h0a3.75,3.75,0,0,1,3.47,2.57l8.94,24.5a4.44,4.44,0,0,1,0,3.09L33.34,47.45A3.74,3.74,0,0,1,29.89,50H22.12A3.88,3.88,0,0,1,18.4,46.27Z"/><path class="cls-3" d="M35.72,50.48,19.49,22.09a4.09,4.09,0,0,1,.62-4.61l8.52-9.34a4.08,4.08,0,0,1,6.68.93L49.48,37.63a4.15,4.15,0,0,1,.36,2.57v9.17a4.08,4.08,0,0,1-4,3.33H39.36A4.09,4.09,0,0,1,35.72,50.48Z"/><path class="cls-4" d="M.32,47,14,14.53a4.08,4.08,0,0,1,6-1.84l6,3.88a4.1,4.1,0,0,1,1.81,4.1l-3,18.2a4.07,4.07,0,0,1-1,2.08L14.27,51.37a4.07,4.07,0,0,1-3,1.33H4.09A4.09,4.09,0,0,1,.32,47Z"/><path class="cls-5" d="M91.66,41.12a3.18,3.18,0,0,1-3-2L87.53,36H75.09l-1.17,3.13a3.22,3.22,0,0,1-3,2,3.29,3.29,0,0,1-3.26-3.3,2.9,2.9,0,0,1,.22-1.18l8.48-21.78a5.12,5.12,0,0,1,4.74-3.26,5.25,5.25,0,0,1,5.26,3.26l8.43,21.78A3.78,3.78,0,0,1,95,37.82,3.32,3.32,0,0,1,91.66,41.12ZM81.31,18,76.79,30.51h9Z"/><path class="cls-5" d="M129.6,17.16h-6V37.9a3.11,3.11,0,0,1-6.22,0V17.16h-6a2.73,2.73,0,0,1-2.7-2.79,2.7,2.7,0,0,1,2.7-2.65h18.3a2.72,2.72,0,0,1,0,5.44Z"/><path class="cls-5" d="M163,41.35c-8.74,0-15.13-6.26-15.13-15s6.39-15,15.13-15,15.17,6.26,15.17,15S171.81,41.35,163,41.35Zm0-24.52c-5.35,0-8.78,4.09-8.78,9.52s3.43,9.53,8.78,9.53,8.83-4.14,8.83-9.53S168.38,16.83,163,16.83Z"/><path class="cls-5" d="M225.24,41a3.1,3.1,0,0,1-3.09-3.09V20.46L214.33,39.9A1.84,1.84,0,0,1,212.59,41a1.8,1.8,0,0,1-1.65-1.13l-7.83-19.44V38a3.09,3.09,0,0,1-6.17,0V15.25a3.48,3.48,0,0,1,3.47-3.48c2.83-.31,5.26.3,6.31,2.82l5.91,14.7,5.91-14.7a4.52,4.52,0,0,1,4.22-2.82c2.79-.44,5.61.61,5.61,3.48V37.94A3.11,3.11,0,0,1,225.24,41Z"/><path class="cls-5" d="M250.46,41.11a3.08,3.08,0,0,1-3-3V14.63a3.09,3.09,0,0,1,6.17,0V38.07A3.1,3.1,0,0,1,250.46,41.11Z"/><path class="cls-5" d="M284,41.33c-4.22,0-9.44-1.39-11-3.78a2.65,2.65,0,0,1-.47-1.48,2.93,2.93,0,0,1,2.91-2.87,2.81,2.81,0,0,1,1.65.48,12.75,12.75,0,0,0,7.26,2.26c3.39,0,5.05-1.57,5.05-3.22,0-5.13-16.7-1.61-16.7-12.52,0-4.83,4.17-8.83,11-8.83,3.31,0,8.35,1.09,10,3.22a2.37,2.37,0,0,1,.52,1.48,3,3,0,0,1-3.09,2.78,3.07,3.07,0,0,1-1.56-.43,13.11,13.11,0,0,0-6.39-1.66c-2.66,0-4.13,1.18-4.13,2.92,0,4.61,16.65,1.52,16.65,12.35C295.63,37.33,291.84,41.33,284,41.33Z"/><path class="cls-5" d="M332.58,17.16h-6.05V37.9a3.11,3.11,0,0,1-6.22,0V17.16h-6a2.73,2.73,0,0,1-2.69-2.79,2.7,2.7,0,0,1,2.69-2.65h18.31a2.72,2.72,0,0,1,0,5.44Z"/></g></g></g></svg>