<svg xmlns="http://www.w3.org/2000/svg" viewBox="0 0 494.35 38.19"><defs><style>.cls-1{fill:#3499cd;}.cls-2{fill:#010101;}</style></defs><title>automattic-logo-cmyk</title><g id="Layer_2" data-name="Layer 2"><g id="Logo"><path class="cls-1" d="M179.25,38.19c-12.58,0-20.74-9.07-20.74-18.51V18.51c0-9.6,8.16-18.51,20.74-18.51s20.81,8.91,20.81,18.51v1.17C200.06,29.12,191.9,38.19,179.25,38.19Zm14.08-19.58c0-6.88-5-13-14.08-13s-14,6.13-14,13v.86c0,6.88,5,13.12,14,13.12s14.08-6.24,14.08-13.12Z"/><path class="cls-2" d="M37.12,36.8,32.43,28H11.57L7,36.8H0L19.2,1.28h5.55L44.27,36.8ZM21.81,8.21,14.08,23.15H29.81Z"/><path class="cls-2" d="M74.56,38.19c-12.75,0-18.67-6.94-18.67-16.16V1.28h6.62V22.13c0,6.56,4.32,10.46,12.53,10.46,8.43,0,11.89-3.9,11.89-10.46V1.28H93.6V22C93.6,30.83,88,38.19,74.56,38.19Z"/><path class="cls-2" d="M130.72,6.83v30h-6.67v-30H108.53V1.28h37.71V6.83Z"/><path class="cls-2" d="M259.47,36.8V8.69l-1.76,3.1-14.88,25h-3.25l-14.72-25-1.76-3.1V36.8h-6.51V1.28h9.23l14,24.37,1.66,3,1.65-3L257,1.28h9.12V36.8Z"/><path class="cls-2" d="M316.54,36.8l-4.7-8.8H291l-4.53,8.8h-7l19.2-35.52h5.54L323.68,36.8ZM301.23,8.21,293.5,23.15h15.73Z"/><path class="cls-2" d="M350.56,6.83v30H343.9v-30H328.38V1.28h37.7V6.83Z"/><path class="cls-2" d="M399.47,6.83v30H392.8v-30H377.28V1.28H415V6.83Z"/><path class="cls-2" d="M431.42,36.8V4.64c2.66,0,3.73-1.44,3.73-3.36H438V36.8Z"/><path class="cls-2" d="M490.19,11.31A20.69,20.69,0,0,0,476,5.6c-9.49,0-14.83,6.51-14.83,13.28v.69c0,6.72,5.39,13,15.31,13a20.78,20.78,0,0,0,13.92-5.71l4,4.21A26.53,26.53,0,0,1,476,38.19c-13.44,0-21.6-8.75-21.6-18.35V18.67C454.4,9.07,463.31,0,476.32,0c7.52,0,14.35,3.15,18,7.09Z"/><path class="cls-2" d="M183.65,12.36A2.59,2.59,0,0,1,184.4,16l-6.08,9.42a2.59,2.59,0,0,1-3.58.79h0a2.61,2.61,0,0,1-.76-3.6l6.08-9.42a2.6,2.6,0,0,1,3.59-.78Z"/></g></g></svg>