<?xml version="1.0" encoding="UTF-8" standalone="no"?>
<!-- Created with Inkscape (http://www.inkscape.org/) -->

<svg
   xmlns:dc="http://purl.org/dc/elements/1.1/"
   xmlns:cc="http://creativecommons.org/ns#"
   xmlns:rdf="http://www.w3.org/1999/02/22-rdf-syntax-ns#"
   xmlns:svg="http://www.w3.org/2000/svg"
   xmlns="http://www.w3.org/2000/svg"
   version="1.1"
   width="450.28751"
   height="63.262501"
   id="svg2"
   xml:space="preserve"><metadata
     id="metadata8"><rdf:RDF><cc:Work
         rdf:about=""><dc:format>image/svg+xml</dc:format><dc:type
           rdf:resource="http://purl.org/dc/dcmitype/StillImage" /><dc:title></dc:title></cc:Work></rdf:RDF></metadata><defs
     id="defs6" /><g
     transform="matrix(1.25,0,0,-1.25,0,63.2625)"
     id="g10"><g
       id="g3806"><g
         id="g3802"><path
           d="m 163.151,9.19805 0,6.55395 c 0,0 -1.718,-0.4598 -4.135,-0.4598 -1.875,0 -2.702,1.3582 -2.702,3.2879 l 0,12.6254 6.11,0 0,7.1679 -6.11,0 0,7.5539 -8.38,0 0,-7.5539 -3.529,0 0,-7.1679 3.529,0 0,-14.0024 c 0,-6.8379 3.473,-8.87693 8.601,-8.87693 4.732,0 6.616,0.87188 6.616,0.87188 l 0,0"
           id="path14"
           style="fill:#ff680a;fill-opacity:1;fill-rule:nonzero;stroke:none" /><path
           d="m 189.35,23.4324 c 0,-4.3562 -2.868,-8.0496 -7.664,-8.0496 -4.631,0 -7.774,3.8047 -7.774,8.1598 l 0,0.1105 c 0,4.3551 2.867,8.0485 7.663,8.0485 4.632,0 7.775,-3.8032 7.775,-8.159 l 0,-0.1102 z m 8.27,0.1102 0,0.1105 c 0,8.4899 -6.782,15.2715 -15.934,15.2715 -9.208,0 -16.044,-6.8914 -16.044,-15.382 l 0,-0.1102 c 0,-8.491 6.781,-15.27224 15.933,-15.27224 9.207,0 16.045,6.89144 16.045,15.38244 l 0,0"
           id="path16"
           style="fill:#ff680a;fill-opacity:1;fill-rule:nonzero;stroke:none" /></g><g
         id="g3790"><path
           d="m 134.677,23.5426 c 0,-4.9625 -3.308,-8.1598 -7.222,-8.1598 -3.914,0 -7.168,3.252 -7.168,8.1598 l 0,0.1105 c 0,4.9071 3.254,8.1598 7.168,8.1598 3.914,0 7.222,-3.2527 7.222,-8.1598 l 0,-0.1105 z m 7.543,0 0,0.1105 c 0,9.8692 -6.561,15.2715 -13.453,15.2715 -4.355,0 -7.167,-2.0398 -9.207,-4.7961 l 0,4.2449 -7.878,0 0,-38.3734 7.878,0 0,12.6805 c 1.984,-2.37 4.742,-4.40902 9.207,-4.40902 7.002,0 13.453,5.40122 13.453,15.27112 l 0,0"
           id="path18"
           style="fill:#7a7f82;fill-opacity:1;fill-rule:nonzero;stroke:none" /><path
           d="m 27.457,13.5637 -4.9058,4.9617 c -2.041,-1.9297 -3.9696,-3.1426 -6.7821,-3.1426 -4.5757,0 -7.49801,3.6387 -7.49801,8.1598 l 0,0.1105 c 0,4.3551 2.97731,8.0485 7.16761,8.0485 2.9773,0 4.8508,-1.2676 6.7261,-3.252 l 5.1274,5.5129 C 24.5355,37.0504 21.0625,38.9246 15.4934,38.9246 6.45234,38.9246 0,31.9773 0,23.5426 L 0,23.4324 C 0,14.9969 6.50703,8.16016 15.3832,8.16016 c 5.8984,0 9.2074,2.26094 12.0738,5.40354 l 0,0"
           id="path22"
           style="fill:#7a7f82;fill-opacity:1;fill-rule:nonzero;stroke:none" /><path
           d="m 42.2172,14.2168 c -2.3766,0 -3.8277,1.2441 -3.8277,2.823 0,1.8196 0.8781,2.7618 3.4929,3.1461 5.4528,0.8024 6.7938,1.7657 6.7938,1.7657 0.8797,-6.9106 -3.9235,-7.7348 -6.459,-7.7348 l 0,0 z M 56.7996,8.83398 c 0,0 -0.0473,14.21092 -0.0473,19.18792 0,5.8859 -4.5738,10.9093 -13.1863,10.9093 -7.7453,0 -11.9996,-4.9589 -11.9996,-4.9589 l 4.9633,-5.2516 c 0,0 2.0949,2.9902 6.7851,2.9902 3.5575,0 5.2774,-1.0476 5.2774,-2.848 0,-4.9426 -18.116,0.7531 -18.116,-12.3727 0,-6.3652 4.6468,-8.32692 9.0019,-8.32692 6.6992,0 9.1141,3.77812 9.1141,3.77812 l -0.0695,-3.09765 8.2769,-0.00977 0,0"
           id="path26"
           style="fill:#7a7f82;fill-opacity:1;fill-rule:nonzero;stroke:none" /><path
           d="m 106.914,8.82227 0,19.24183 c 0,7.1113 -3.75,10.8605 -9.9804,10.8605 -4.0238,0 -7.1121,-1.6535 -9.7031,-4.6863 -1.5434,2.9773 -4.466,4.6863 -8.3258,4.6863 -4.2449,0 -6.7809,-2.2605 -8.7113,-4.7414 l 0,4.1902 -8.3797,0 0,-29.55113 8.3797,0 0,16.48393 c 0,3.9696 1.9304,6.0102 5.0738,6.0102 3.1414,0 4.9058,-2.0406 4.9058,-6.0102 l 0,-16.48393 8.3801,0 0,16.48393 c 0,3.9696 1.9297,6.0102 5.0735,6.0102 3.1429,0 4.9066,-2.0406 4.9066,-6.0102 l 0,-16.48393 8.3808,0 0,0"
           id="path30"
           style="fill:#7a7f82;fill-opacity:1;fill-rule:nonzero;stroke:none" /></g><g
         id="g3796"><path
           d="m 336.175,23.5426 c 0,-4.9625 -3.308,-8.1598 -7.223,-8.1598 -3.914,0 -7.167,3.252 -7.167,8.1598 l 0,0.1105 c 0,4.9071 3.253,8.1598 7.167,8.1598 3.915,0 7.223,-3.2527 7.223,-8.1598 l 0,-0.1105 z m 7.543,0 0,0.1105 c 0,9.8692 -6.562,15.2715 -13.454,15.2715 -4.355,0 -7.167,-2.0398 -9.206,-4.7961 l 0,4.2449 -7.879,0 0,-38.3734 7.879,0 0,12.6805 c 1.984,-2.37 4.741,-4.40902 9.206,-4.40902 7.002,0 13.454,5.40122 13.454,15.27112 l 0,0"
           id="path20"
           style="fill:#7a7f82;fill-opacity:1;fill-rule:nonzero;stroke:none" /><path
           d="m 228.954,13.5637 -4.905,4.9617 c -2.042,-1.9297 -3.971,-3.1426 -6.782,-3.1426 -4.576,0 -7.499,3.6387 -7.499,8.1598 l 0,0.1105 c 0,4.3551 2.978,8.0485 7.168,8.0485 2.977,0 4.851,-1.2676 6.726,-3.252 l 5.128,5.5129 c -2.757,3.0879 -6.229,4.9621 -11.8,4.9621 -9.041,0 -15.491,-6.9473 -15.491,-15.382 l 0,-0.1102 c 0,-8.4355 6.505,-15.27224 15.382,-15.27224 5.9,0 9.207,2.26094 12.073,5.40354 l 0,0"
           id="path24"
           style="fill:#7a7f82;fill-opacity:1;fill-rule:nonzero;stroke:none" /><path
           d="m 243.714,14.2168 c -2.376,0 -3.827,1.2441 -3.827,2.823 0,1.8196 0.879,2.7618 3.493,3.1461 5.452,0.8024 6.793,1.7657 6.793,1.7657 0.88,-6.9106 -3.922,-7.7348 -6.459,-7.7348 l 0,0 z m 14.583,-5.38282 c 0,0 -0.048,14.21092 -0.048,19.18792 0,5.8859 -4.573,10.9093 -13.186,10.9093 -7.745,0 -11.999,-4.9589 -11.999,-4.9589 l 4.962,-5.2516 c 0,0 2.095,2.9902 6.787,2.9902 3.556,0 5.276,-1.0476 5.276,-2.848 0,-4.9426 -18.115,0.7531 -18.115,-12.3727 0,-6.3652 4.647,-8.32692 9.001,-8.32692 6.7,0 9.114,3.77812 9.114,3.77812 l -0.069,-3.09765 8.277,-0.00977 0,0"
           id="path28"
           style="fill:#7a7f82;fill-opacity:1;fill-rule:nonzero;stroke:none" /><path
           d="m 308.411,8.82227 0,19.24183 c 0,7.1113 -3.75,10.8605 -9.98,10.8605 -4.024,0 -7.111,-1.6535 -9.703,-4.6863 -1.543,2.9773 -4.466,4.6863 -8.327,4.6863 -4.244,0 -6.78,-2.2605 -8.71,-4.7414 l 0,4.1902 -8.38,0 0,-29.55113 8.38,0 0,16.48393 c 0,3.9696 1.93,6.0102 5.073,6.0102 3.141,0 4.908,-2.0406 4.908,-6.0102 l 0,-16.48393 8.379,0 0,16.48393 c 0,3.9696 1.929,6.0102 5.073,6.0102 3.143,0 4.906,-2.0406 4.906,-6.0102 l 0,-16.48393 8.381,0 0,0"
           id="path32"
           style="fill:#7a7f82;fill-opacity:1;fill-rule:nonzero;stroke:none" /></g><path
         d="m 354.871,49.8422 0.764,0 0,0.7652 -0.764,0 0,-0.7652 z m -4.59,-0.7645 0,-0.7652 0.765,0 0,0.7652 -0.765,0 0,0 z m -0.765,-1.5308 0.765,0 0,0.7656 -0.765,0 0,-0.7656 z m -3.06,-2.2946 0.765,0 0,0.7653 -0.765,0 0,-0.7653 z m -0.766,-1.5293 0,0.7641 -0.764,0 0,-0.7641 0.764,0 0,0 z m 0.766,0.7641 0,0.7652 -0.766,0 0,-0.7652 0.766,0 0,0 z m 2.294,0.7652 0,0.7653 -0.765,0 0,-0.7653 0.765,0 0,0 z m 0.766,0.7653 0,1.5293 -0.766,0 0,-1.5293 0.766,0 0,0 z m 0.765,0.764 0.765,0 0,0.7653 -0.765,0 0,-0.7653 z m 3.06,0 0,0.7653 -0.765,0 0,-0.7653 0.765,0 0,0 z m 0.764,0.7653 0,1.5308 -0.764,0 0,-1.5308 0.764,0 0,0 z m 0.766,1.5308 0,0.7645 -0.766,0 0,-0.7645 0.766,0 0,0 z m 5.355,-5.3547 -0.766,0 0,1.5293 -0.765,0 0,1.5293 -0.764,0 0,1.5309 -0.765,0 0,0.7652 -0.766,0 0,0.7645 -0.765,0 0,-2.2953 -0.764,0 0,-0.7653 0.764,0 0,-0.764 -0.764,0 0,0.764 -0.766,0 0,-0.764 -0.764,0 0,-0.7653 0.764,0 0,-0.7652 -0.764,0 0,-0.7641 -0.765,0 0,0.7641 0.765,0 0,0.7652 -0.765,0 0,1.5293 -1.53,0 0,-0.764 -0.765,0 0,-0.7653 -0.765,0 0,-1.5293 0.765,0 0,-0.766 -0.765,0 0,0.766 -0.766,0 0,0.7641 -0.765,0 0,0.7652 -0.764,0 0,-1.5293 -1.531,0 0,-0.766 -0.764,0 0,0.766 -0.765,0 0,-5.355 16.065,0 0,5.355"
         id="path34"
         style="fill:#ff680a;fill-opacity:1;fill-rule:nonzero;stroke:none" /></g></g></svg>