<svg xmlns="http://www.w3.org/2000/svg" xmlns:xlink="http://www.w3.org/1999/xlink" viewBox="0 0 200 200"><defs><style>.a{fill:#fff;}.b{fill:#fc6621;}.c{filter:url(#c);}.d{filter:url(#a);}</style><filter id="a" x="135.518" y="10.367" width="56.929" height="175.463" filterUnits="userSpaceOnUse"><feOffset input="SourceAlpha"/><feGaussianBlur stdDeviation="3" result="b"/><feFlood flood-opacity="0.435"/><feComposite operator="in" in2="b"/><feComposite in="SourceGraphic"/></filter><filter id="c" x="1.418" y="10.367" width="129.539" height="177.753" filterUnits="userSpaceOnUse"><feOffset input="SourceAlpha"/><feGaussianBlur stdDeviation="3" result="d"/><feFlood flood-opacity="0.506"/><feComposite operator="in" in2="d"/><feComposite in="SourceGraphic"/></filter></defs><g transform="translate(-324 -287)"><rect class="a" width="200" height="200" transform="translate(324 287)"/><g transform="translate(468.518 306.367)"><g class="d" transform="matrix(1, 0, 0, 1, -144.52, -19.37)"><path class="a" d="M63.916-80.582h38.929V76.881H63.916Z" transform="translate(80.6 99.95)"/></g></g><g transform="translate(334.418 306.367)"><g class="c" transform="matrix(1, 0, 0, 1, -10.42, -19.37)"><path class="b" d="M42.555,159.753a46.38,46.38,0,0,1-9.741-.984,36.269,36.269,0,0,1-8.518-2.952A33.752,33.752,0,0,1,17,150.9a38.322,38.322,0,0,1-6.074-6.888,58.806,58.806,0,0,1-8.194-17.436A75.959,75.959,0,0,1,0,105.748,74.819,74.819,0,0,1,3.018,83.517,43.409,43.409,0,0,1,12.07,67.2a40,40,0,0,1,13.7-10.018,42.256,42.256,0,0,1,16.972-3.34A42.939,42.939,0,0,1,59.2,56.9a37.6,37.6,0,0,1,13.119,9.159V0h39.215V157.462H75.186v-14.98c-5.065,6.332-9.752,10.665-13.93,12.881a37.826,37.826,0,0,1-8.874,3.292A43.083,43.083,0,0,1,42.555,159.753Zm5.906-70.708A18.492,18.492,0,1,0,55.681,90.5,18.435,18.435,0,0,0,48.461,89.045Z" transform="translate(10.42 19.37)"/></g></g></g></svg>