<svg xmlns="http://www.w3.org/2000/svg" width="280" height="80"><path fill="#FA7009" fill-rule="evenodd" d="M147.465 50.46l3.998 10.647 3.725-10.648h6.97l-11.135 29.256h-6.843l3.842-10.09-7.655-19.166h7.098zm129.538 2.478a10.038 10.038 0 012.994 7.416v2.325h-14.508a4.253 4.253 0 004.214 2.677 4.41 4.41 0 003.959-2.286l5.445 2.725a10.687 10.687 0 01-9.532 5.04c-6.52.03-10.567-4.57-10.567-10.373a10.302 10.302 0 013.061-7.428 10.318 10.318 0 017.467-2.975c2.78-.115 5.484.928 7.467 2.879zm-39.052.004a10.038 10.038 0 012.99 7.412v2.325h-14.497a4.233 4.233 0 004.204 2.677 4.42 4.42 0 003.969-2.286l5.445 2.725a10.756 10.756 0 01-9.531 5.04c-6.53.03-10.578-4.57-10.578-10.373a10.311 10.311 0 013.068-7.428 10.328 10.328 0 017.47-2.975 10.05 10.05 0 017.46 2.883zM39.255 1.256l30.736 25.398a5.39 5.39 0 011.955 4.161v34.424a5.39 5.39 0 01-5.455 5.402H5.636a5.407 5.407 0 01-4.873-2.63 5.398 5.398 0 010-5.534 5.407 5.407 0 014.873-2.63h55.449V33.315l-25.3-20.905L11.07 33.286v11.898a5.404 5.404 0 01-5.406 5.402A5.404 5.404 0 01.26 45.184V30.776a5.371 5.371 0 011.955-4.122l30.11-25.398a5.41 5.41 0 016.931 0zm69.468 40.001l10.01 29.208h-7.087l-1.437-4.25h-9.776l-1.408 4.279h-7.048l10.01-29.237h6.736zm146.355 9.202h2.248v6.72h-4.125c-2.61 0-3.412.88-3.412 4.006v9.28h-6.648V50.459h6.609v3.478a5.357 5.357 0 015.328-3.478zm-123-.4c4.291 0 7.087 2.803 7.087 7.638v12.768h-6.873V59.182c0-2.08-.84-3.243-2.61-3.243-1.554 0-2.678 1.124-2.678 3.527v10.999h-6.843l-.02-20.006h6.775v2.237a6.258 6.258 0 015.161-2.637zm73.338-8.802v11.44a6.336 6.336 0 015.21-2.638c4.283 0 7.088 2.803 7.088 7.638v12.768h-6.93V59.182c0-2.08-.842-3.243-2.601-3.243-1.564 0-2.689 1.124-2.689 3.527v10.999h-6.843l.04-29.208h6.725zM169.97 50.42l3.44 10.804 3.726-10.804h5.934l3.597 10.745 3.53-10.745h6.764l-6.99 20.045h-6.334l-3.647-10.404-3.705 10.404h-6.325l-6.755-20.045h6.765zm-64.619.87l-2.796 8.527h5.602l-2.806-8.528zm125.18 4.21a4.165 4.165 0 00-3.93 2.364h7.733a3.813 3.813 0 00-3.802-2.364zm39.045 0a4.165 4.165 0 00-3.92 2.364h7.733a3.813 3.813 0 00-3.813-2.364zm-41.567-43.85V9.402h6.726v19.693c0 5.724-3.324 10.08-10.255 10.08a11.606 11.606 0 01-10.411-5.558l6.57-3.047a4.028 4.028 0 003.841 2.52c2.239 0 3.48-1.553 3.48-3.907v-2.042a6.239 6.239 0 01-5.406 2.647c-4.565.03-8.964-3.858-8.964-10.383 0-6.438 4.36-10.404 9.091-10.404a6.15 6.15 0 015.328 2.647zm-92.673.154a10.524 10.524 0 012.332 11.493 10.538 10.538 0 01-9.754 6.522 10.269 10.269 0 01-7.486-2.964 10.253 10.253 0 01-3.043-7.45 10.53 10.53 0 016.426-9.812 10.544 10.544 0 0111.525 2.211zm35.553-2.88c5.122.04 7.82 2.12 9.258 5.119l-6.208 1.602a3.07 3.07 0 00-3.05-1.954c-1.32 0-2.043.518-2.043 1.24 0 .723 1.446.977 4.008 1.515 3.363.684 7.566 1.885 7.566 6.408 0 3.4-3.157 7.004-9.17 6.965-5.445 0-8.651-2.208-9.893-5.89l6.687-1.603a3.206 3.206 0 003.324 2.364c1.407 0 2.043-.674 2.043-1.358 0-.976-1.877-1.24-4.126-1.68-3.44-.605-7.283-1.758-7.283-6.164 0-3.721 3.764-6.603 8.887-6.564zm-11.301.479v20.015h-6.765v-2.276a6.268 6.268 0 01-5.162 2.647c-4.32.03-7.126-2.774-7.126-7.658V9.432h6.93v11.282c0 2.09.841 3.205 2.601 3.205 1.564 0 2.679-1.075 2.679-3.478V9.403h6.843zM99.837.2v11.087h8.417V.201h6.96v29.217h-6.96V18.165h-8.418v11.253h-7.009V.201h7.01zm89.713 9.202v20.015h-6.921V9.403h6.92zm14.625-.4c4.282 0 7.087 2.803 7.087 7.648v12.767h-6.93V18.126c0-2.08-.842-3.243-2.601-3.243-1.564 0-2.689 1.123-2.689 3.526v11.01H192.2l.04-20.016h6.764v2.246a6.288 6.288 0 015.172-2.647zm-78.36 6.536a3.906 3.906 0 00-1.744 3.867 3.906 3.906 0 001.744 3.866 3.913 3.913 0 004.244 0 3.906 3.906 0 001.745-3.866 3.906 3.906 0 00-1.745-3.867 3.913 3.913 0 00-4.244 0zm98.527-.295a4.163 4.163 0 00-4.164 4.162 4.163 4.163 0 004.164 4.16 3.96 3.96 0 003.9-4.239l.01.079a3.964 3.964 0 00-3.91-4.162zM189.55 1.041v7.004h-6.921V1.04h6.92z"/></svg>
