<?xml version="1.0" encoding="utf-8"?>
<!-- Generator: Adobe Illustrator 19.1.0, SVG Export Plug-In . SVG Version: 6.00 Build 0)  -->
<svg version="1.1" id="Calque_1" xmlns="http://www.w3.org/2000/svg" xmlns:xlink="http://www.w3.org/1999/xlink" x="0px" y="0px"
	 width="2877px" height="500px" viewBox="0 0 2877 500" enable-background="new 0 0 2877 500" xml:space="preserve">
<path fill="#F05A35" d="M2033.9,393.8h-49.7v-65.6h49.7V393.8z"/>
<path fill="#F05A35" d="M2255.1,394.8H2175c-34,0-61.3-10.3-81.9-30.7c-24.8-24.6-37.1-61.6-37.1-111.1c0-57.7,14.2-97.9,42.5-120.6
	c18.8-15.3,44.3-22.9,76.5-22.9h80.1v61h-76.2c-23.6,0-40,7.6-49.3,22.9c-8.1,13.4-12.1,33.4-12.1,59.8c0,32,6.6,54.6,19.7,67.6
	c10.2,10.1,26.2,15.1,48,15.1h69.9V394.8z"/>
<path fill="#F05A35" d="M2480,131.7c29.5,26,44.3,66,44.3,119.9c0,45.3-10.8,81.5-32.4,108.5c-21.6,26.9-50.8,40.4-87.4,40.4
	c-36.4,0-65.5-13.2-87.2-39.6c-21.8-26.4-32.7-62.8-32.7-109.3c0-55.8,14.5-96.1,43.4-121c20.6-17.8,46.1-26.8,76.5-26.8
	C2433.7,103.8,2458.9,113.1,2480,131.7L2480,131.7z M2448.5,312.7c10.2-16.3,15.3-36.3,15.3-60.1c0-25.2-4.9-45.8-14.8-61.8
	c-10.8-17.4-25.5-26.1-44.1-26.1c-14.7,0-27.7,6.9-39.1,20.6c-13.8,16.3-20.7,38.8-20.7,67.3c0,22.6,5.1,42.3,15.3,59
	c11.4,18.9,25.9,28.4,43.6,28.4C2422.2,340,2437.1,330.9,2448.5,312.7L2448.5,312.7z"/>
<path fill="#F05A35" d="M2877,394.8h-58.1V223.4c0-20.1-2.8-33.8-8.3-41c-5.5-7.3-16-10.9-31.5-10.9h-34v223.4h-61V171.4h-71.4
	v223.4h-58.1V109.4h228.7c30.1,0,52.4,6.5,67,19.5c17.9,16,26.8,44.3,26.8,84.9V394.8z"/>
<path fill="#054466" d="M116.9,381.6c0,39-7,68.1-20.9,87.2c-13.9,19.1-36,28.7-66.3,28.7H0v-58.4h25.2c12,0,20.4-5.2,25.2-15.6
	c3.9-8.6,5.9-23.5,5.9-44.7V109.1h60.6V381.6z M116.9,73.8H56.4V4.6h60.6V73.8z"/>
<path fill="#054466" d="M350.6,394.6h-87.2c-37.4,0-65.9-12.9-85.4-38.6c-19.5-25.7-29.2-60.6-29.2-104.6
	c0-56.7,13.9-96.6,41.8-119.7c18.3-15.3,42.5-22.9,72.8-22.9h87.2V166h-79.7c-20.8,0-35.5,4-43.9,12.1c-8.5,8.1-12.7,23-12.7,44.8
	h136.3v58.4H214.3c0,21,3.8,35.7,11.5,44c7.6,8.3,22.7,12.4,45.2,12.4h79.6V394.6z"/>
<path fill="#054466" d="M588.8,394.6H476c-32.1,0-55.1-7.1-69.2-21.3c-16.2-16-24.3-43.6-24.3-82.8V108.6h58.1v176.2
	c0,16,2.5,27.8,7.6,35.2c6.3,9.3,17,14,32.2,14h49.7V108.6h58.6V394.6z"/>
<path fill="#054466" d="M856.2,108.6l-84,144.9l82.2,141h-68.8l-49-82.5l-48.1,82.5h-67.9l82.7-143.3l-83.6-142.7h67.9l49,87.4
	l51.2-87.4H856.2z"/>
<path fill="#054466" d="M1131.3,108.6l-101.1,285.9h-62.5l-96.2-285.9h64.7l64.7,208l67.4-208H1131.3z"/>
<path fill="#054466" d="M1223.1,73.8h-60.5V4.6h60.5V73.8z M1223.1,394.6h-60.5V109.1h60.5V394.6z"/>
<path fill="#054466" d="M1479.4,394.6h-115.5c-28.5,0-52.6-9.5-72.3-28.5c-25.8-25-38.6-62.5-38.6-112.8c0-48,10.8-84.7,32.4-110
	c19.8-23.1,46.3-34.6,79.6-34.6h54.9l0.4-104h59.1V394.6z M1420.3,336.2V170.7h-32.6c-27.7,0-46.8,6.4-57.2,19.3
	c-10.4,12.9-15.6,36.4-15.6,70.7c0,25,3.9,42.9,11.8,53.7c10.6,14.5,30,21.8,58.3,21.8H1420.3z"/>
<path fill="#054466" d="M1712.6,394.6h-87.2c-37.5,0-65.9-12.9-85.4-38.6c-19.5-25.7-29.2-60.6-29.2-104.6
	c0-56.7,13.9-96.6,41.8-119.7c18.3-15.3,42.5-22.9,72.8-22.9h87.2V166h-79.7c-20.8,0-35.5,4-43.9,12.1c-8.5,8.1-12.7,23-12.7,44.8
	h136.3v58.4h-136.3c0,21,3.8,35.7,11.5,44c7.7,8.3,22.7,12.4,45.2,12.4h79.6V394.6z"/>
<path fill="#054466" d="M1939.7,131.4c29.6,26,44.5,66,44.5,119.9c0,45.3-10.9,81.5-32.6,108.5c-21.7,26.9-51,40.4-87.8,40.4
	c-36.5,0-65.7-13.2-87.6-39.6c-21.9-26.4-32.8-62.8-32.8-109.3c0-55.8,14.5-96.1,43.6-121c20.7-17.8,46.3-26.8,76.8-26.8
	C1893.2,103.5,1918.5,112.8,1939.7,131.4L1939.7,131.4z M1907.9,312.5c10.2-16.3,15.3-36.3,15.3-60.1c0-25.2-4.9-45.8-14.8-61.8
	c-10.8-17.4-25.5-26.1-44-26.1c-14.7,0-27.7,6.9-39.1,20.6c-13.8,16.3-20.7,38.8-20.7,67.3c0,22.6,5.1,42.3,15.3,59
	c11.4,18.9,25.9,28.4,43.6,28.4C1881.7,339.7,1896.5,330.7,1907.9,312.5L1907.9,312.5z"/>
</svg>
