<?xml version="1.0" encoding="utf-8"?>
<!-- Generator: Adobe Illustrator 21.0.2, SVG Export Plug-In . SVG Version: 6.00 Build 0)  -->
<svg version="1.1" id="Layer_1" xmlns="http://www.w3.org/2000/svg" xmlns:xlink="http://www.w3.org/1999/xlink" x="0px" y="0px"
	 viewBox="0 0 601.4 161.6" style="enable-background:new 0 0 601.4 161.6;" xml:space="preserve">
<style type="text/css">
	.st0{fill:#E50914;}
</style>
<title>Netflix_Logo_Digital+Video</title>
<path class="st0" d="M464.9,146.7c8.4,0.6,16.9,1.3,25.3,2.1V0.4h-25.3V146.7z M58.4,91.7L25.5,0.4h-24v161.2
	c8.4-1.2,16.8-2.3,25.3-3.5V70.5L56,154.6c9.2-1.1,18.4-2.1,27.7-3V0.4H58.4L58.4,91.7z M108,149.2c23.3-2.1,46.7-3.8,70.2-5.2
	v-24.9c-15,0.9-30,1.9-44.9,3.1V84.5c9.8-0.1,22.7-0.4,34.1-0.3V59.3c-9.1,0-23.8,0.1-34.1,0.3v-34h44.9V0.4H108V149.2z M194.3,25.5
	h26.4V142c8.4-0.3,16.8-0.6,25.3-0.8V25.5h26.4V0.4h-78.2V25.5z M288.7,140.5H314V83h34.3V58.1H314V25.5h45.3V0.4h-70.5L288.7,140.5
	z M601.5,0.4h-27.8l-18.3,42.4L539,0.4h-27.3L541,76.2l-32.1,74.3c8.9,0.9,17.7,1.8,26.6,2.8l18.7-43.2l18.5,47.6
	c9.6,1.2,19.2,2.5,28.8,3.9l0,0l-32.9-84.9L601.5,0.4z M400.7,0.4h-25.3v141.3c23,0.8,45.8,1.9,68.6,3.5v-24.9
	c-14.4-1-28.8-1.8-43.3-2.4V0.4z"/>
</svg>
