<?xml version="1.0" encoding="utf-8"?>
<svg version="1.1" id="Layer_1" xmlns="http://www.w3.org/2000/svg" xmlns:xlink="http://www.w3.org/1999/xlink" x="0px" y="0px"
	 viewBox="0 0 1251.8 200" style="enable-background:new 0 0 1251.8 200;" xml:space="preserve">
<style type="text/css">
	.st0{fill:#32324B;}
	.st1{fill:#00D2FF;}
	.st2{fill:#FF4B19;}
</style>
<title>Weaveworks</title>
<path class="st0" d="M56.9,112.4l101.9-91c-8.2-6.4-17.3-11.5-27-15.1L56.9,73.1V112.4z"/>
<path class="st0" d="M27.6,99.3L0,123.9c2.5,10.1,6.5,19.7,12,28.6l15.6-14L27.6,99.3z"/>
<path class="st1" d="M111.4,24.4V1c-9.7-1.4-19.6-1.4-29.3,0.1v49.5L111.4,24.4z"/>
<path class="st1" d="M111.4,162V63.7L82.1,89.8v109c10.8,1.6,21.7,1.5,32.4-0.4l78.4-70c2.7-9.2,4.1-18.8,4.1-28.4
	c0-4.6-0.3-9.2-0.9-13.7L111.4,162z"/>
<path class="st2" d="M111.4,133.1L190,63c-3.7-9.3-8.8-18-15.1-25.8l-63.5,56.6V133.1z"/>
<path class="st2" d="M82.1,120l-25.2,22.6V8.4C46,13.2,36.1,19.9,27.6,28.1v143.8c6.6,6.4,14.1,11.9,22.2,16.3l32.3-28.9L82.1,120z"
	/>
<path class="st0" d="M341.5,120.4l18.7-70.1h25.1l-27.8,97.5H328l-16.5-65.7l-16.5,65.7h-29.6l-27.8-97.5h25.1l18.7,70.1l18.5-70.1
	H323L341.5,120.4z"/>
<path class="st0" d="M477.8,115.8c-2.8,19.4-17.8,33.3-43.4,33.3c-27.2,0-47.3-16.4-47.3-49.5c0-33.3,20.8-50.5,47.3-50.5
	c29.4,0,44.8,21.5,44.8,50.4v5.2H412c0,10.8,4.4,24.6,22.1,24.6c9.8,0,17.4-4.8,19.4-13.9L477.8,115.8z M453.8,87.3
	c-0.9-13.5-9.6-18.5-19.6-18.5c-11.4,0-20.1,6.9-21.4,18.5H453.8z"/>
<path class="st0" d="M551.1,84.6v-3.4c0-7.7-3.2-12.6-17.6-12.6c-18,0-18.5,10-18.5,13.3h-23.1c0-14.4,6-32.9,42.4-32.9
	c34.7,0,40.9,17.3,40.9,31.3v53.7c0,3.2,0.1,6.4,0.5,9.6l0.7,4.1h-24.6V138c-6.9,6.9-16.5,11-30.2,11c-19.2,0-33.8-11.2-33.8-30.6
	c0-22.4,21.2-27.2,29.8-28.6L551.1,84.6z M551.1,103l-9.4,1.4c-5.2,0.9-11.4,1.8-15.1,2.5c-4.1,0.7-7.7,1.6-10.3,3.7
	c-2.5,1.9-3.9,4.9-3.7,8c0,2.8,1.1,11.8,14.4,11.8c7.8,0,14.8-2.8,18.5-6.6c4.8-4.8,5.7-10.8,5.7-15.7V103z"/>
<path class="st0" d="M644.1,147.8h-32.6l-32-97.5h26.3l22.4,74.6l22.6-74.6h25.6L644.1,147.8z"/>
<path class="st0" d="M768.2,115.8c-2.8,19.4-17.8,33.3-43.4,33.3c-27.2,0-47.3-16.4-47.3-49.5c0-33.3,20.8-50.5,47.3-50.5
	c29.4,0,44.8,21.5,44.8,50.4v5.2h-67.3c0,10.8,4.5,24.6,22.1,24.6c9.8,0,17.4-4.8,19.4-13.9L768.2,115.8z M744.2,87.3
	c-0.9-13.5-9.7-18.5-19.6-18.5c-11.4,0-20.1,6.9-21.4,18.5L744.2,87.3z"/>
<path class="st0" d="M804.1,147.8l-28.3-95h15.3l22.2,80.4l22.2-80.4h16.5l22.4,80.6l22.2-80.6h15l-28.7,95h-17.7l-21.9-78.6
	l-21.7,78.6H804.1z"/>
<path class="st0" d="M960.7,149.1c-25.8,0-43.6-16.4-43.6-48.8c0-32,17.8-48.8,43.6-48.8c25.6,0,43.4,16.4,43.4,48.8
	C1004.1,132.9,986.3,149.1,960.7,149.1z M960.7,136.8c16.4,0,28.5-10,28.5-36.5c0-26.3-12.1-36.5-28.5-36.5
	c-16.5,0-28.7,10-28.7,36.5S944.1,136.8,960.7,136.8z"/>
<path class="st0" d="M1063.7,67.7c-17.1,0-29,5.9-29,28.3v51.8h-14.6v-95h14.4v16.4c6.2-12.1,18.9-16.4,28.8-16.4h6.8v14.9H1063.7z"
	/>
<path class="st0" d="M1166.4,52.8L1131.9,88l36.3,59.8h-17.2l-29.4-49.5l-22.6,23.8v25.6h-14.6V16.1h14.6v87.4l49.3-50.7H1166.4z"/>
<path class="st0" d="M1234.2,78.8c-0.9-11.6-10.1-15-21.9-15c-10.2,0-22.8,3.2-22.8,14.4c0,24.2,62.3,2,62.3,40.8
	c0,13-7.5,30.1-40.8,30.1c-25.4,0-37.5-13-38.1-30.2h16c0.2,10.5,6.9,18,23.8,18c19.4,0,24.2-8.4,24.2-16.9
	c0-18-32.9-10.3-50.9-20.5c-6.6-3.7-11.2-9.6-11.2-20.3c0-15.7,14.8-27.6,37.5-27.6c28.3,0,36.7,16.5,37.2,27.2L1234.2,78.8z"/>
</svg>
