<?xml version="1.0" encoding="utf-8"?>
<!-- Generator: Adobe Illustrator 18.1.1, SVG Export Plug-In . SVG Version: 6.00 Build 0)  -->
<svg version="1.1" id="Layer_1" xmlns="http://www.w3.org/2000/svg" xmlns:xlink="http://www.w3.org/1999/xlink" x="0px" y="0px"
	 viewBox="0 318 612 149" enable-background="new 0 318 612 149" xml:space="preserve">
<g>
	<path fill="#101010" d="M557.548645,418.4451294c0,0,4.6116943-10.2774048,16.005127-9.1213989
		c0,0,11.7195435,1.1556702,11.8886108,13.9021606c0,0,0.1749878,12.7216187-16.180481,13.3364258h-66.061676V325.747406
		h-23.8691711v133.1163025l88.9533691,0.02771c39.6161499-0.6488342,38.4478149-35.0415649,38.4478149-35.0415649
		c-1.4727173-35.4473572-33.9899902-34.9521484-33.9899902-34.9521484
		c-14.0253296,0.0522461-23.0822144,8.4574585-27.3095093,13.5917358L557.548645,418.4451294z"/>
	<path fill="#101010" d="M241.4454803,325.661438h40.9351959c15.3285828,0,24.8866272,2.8836975,32.4603882,9.0109253
		c7.5753479,6.1331787,15.6884155,16.954895,15.6884155,32.2806396c0,8.8386841-3.2463684,22.72229-12.804718,31.9208069
		c-7.9317322,7.5722046-15.5070801,9.3739014-22.1782837,10.9970703l36.2466736,49.2327271h-29.9349976l-35.347229-51.0343933
		h-0.3582764v51.0343933h-24.7071686V325.661438z M266.1526489,389.4939575h15.869751
		c20.3782043,0,23.8030396-13.5240784,23.8030396-20.5579529c0-7.3908691-4.5084534-20.1924438-23.8030396-20.1924438h-15.869751
		V389.4939575z"/>
	<path fill="#101010" d="M329.8010254,409.1515198c0-30.2979431,24.7052612-53.5582581,53.3765869-53.5582581
		c28.3149414,0,53.0174255,22.5409546,53.0174255,53.195282c0,32.8218079-25.2436523,53.5614014-53.0174255,53.5614014
		C353.4242859,462.3499451,329.8010254,437.8228455,329.8010254,409.1515198 M412.2118835,409.3297119
		c0-18.2125854-14.0651855-31.7363281-29.0342712-31.7363281c-12.4417114,0-29.396637,10.637207-29.396637,31.558136
		c0,18.9316101,14.2493896,31.2014771,29.396637,31.2014771
		C400.6708374,440.3529968,412.2118835,425.1994629,412.2118835,409.3297119"/>
	<rect x="444.3020325" y="325.6582642" fill="#101010" width="23.9796696" height="133.445282"/>
	<path fill="#00AFF0" d="M55.5428391,325.6582947h19.2945938l55.9055023,133.4453125h-27.2326202l-14.2449799-34.4453125H41.4776039
		l-14.2465611,34.4453125H0L55.5428391,325.6582947z M49.7723083,401.3948364h30.655899l-15.1488266-40.9320374h-0.3582535
		L49.7723083,401.3948364z"/>
	<path fill="#00AFF0" d="M229.3711243,459.1036072h-21.9985352v-12.2667236h-0.3626404
		c-4.5071716,7.2215271-14.9659271,15.5130615-31.9179688,15.5130615c-25.4249878,0-51.03125-20.9177551-51.03125-53.1984253
		c0-33.7224731,27.048111-53.5582581,51.03125-53.5582581c14.6060638,0,23.2605896,4.8695374,30.2976379,12.2604065v-42.1985168
		h23.9815063V459.1036072z M177.6161346,440.3498535c18.0356598,0,29.5767059-16.2324219,29.5767059-31.3768311
		c0-16.4137268-12.6233673-31.3796387-29.5767059-31.3796387c-17.8499298,0-29.5738831,16.5890808-29.5738831,30.6543274
		C148.0422516,426.8226318,161.9289856,440.3498535,177.6161346,440.3498535"/>
</g>
</svg>
