<?xml version="1.0" encoding="utf-8"?>
<!-- Generator: Adobe Illustrator 17.0.2, SVG Export Plug-In . SVG Version: 6.00 Build 0)  -->
<!DOCTYPE svg PUBLIC "-//W3C//DTD SVG 1.1//EN" "http://www.w3.org/Graphics/SVG/1.1/DTD/svg11.dtd">
<svg version="1.1" id="Layer_1" xmlns="http://www.w3.org/2000/svg" xmlns:xlink="http://www.w3.org/1999/xlink" x="0px" y="0px"
	 width="792px" height="168.395px" viewBox="0 527.803 792 168.395" enable-background="new 0 527.803 792 168.395"
	 xml:space="preserve">
<g id="Atlassian__x5F__Blue">
	<g>
		<g>
			<path fill="#205081" d="M231.125,573.012c-0.411-1.306-1.624-2.195-2.996-2.195h-29.311c-1.371,0-2.584,0.888-2.996,2.195
				l-36.981,117.286c-0.301,0.955-0.13,1.994,0.463,2.804c0.591,0.806,1.532,1.282,2.533,1.282h20.179
				c1.392,0,2.619-0.916,3.012-2.254l25.467-86.257c0,0,0.666-2.152,2.972-2.152c2.345,0,2.916,2.24,2.916,2.242l11.817,40.9
				h-15.873c-1.407,0-2.644,0.935-3.023,2.29l-4.554,16.193c-0.267,0.948-0.074,1.963,0.52,2.746
				c0.593,0.785,1.52,1.244,2.504,1.244h27.033l7.117,22.839c0.409,1.312,1.623,2.207,2.999,2.207h20.188
				c1.002,0,1.943-0.478,2.534-1.282c0.592-0.81,0.764-1.849,0.463-2.804L231.125,573.012z"/>
			<path fill="#205081" d="M319.045,676.309c-0.134-0.875-0.626-1.652-1.362-2.144s-1.643-0.649-2.503-0.435
				c-3.276,0.814-6.415,1.264-8.836,1.264c-4.592,0-6.638-1.991-6.638-6.457v-44.938h18.02c1.734,0,3.141-1.408,3.141-3.141v-14.016
				c0-1.734-1.407-3.139-3.141-3.139h-18.02v-21.639c0-0.908-0.394-1.773-1.079-2.368c-0.685-0.597-1.598-0.868-2.496-0.742
				l-18.552,2.585c-1.553,0.216-2.709,1.544-2.709,3.11v19.054h-10.106c-1.735,0-3.141,1.405-3.141,3.139v14.016
				c0,1.733,1.406,3.141,3.141,3.141h10.106v47.839c0,16.428,8.637,24.757,25.667,24.757c4.846,0,13.077-1.116,18.46-2.988
				c1.43-0.496,2.302-1.939,2.076-3.431L319.045,676.309z"/>
			<path fill="#205081" d="M353.393,568.53H334.84c-1.734,0-3.141,1.405-3.141,3.142v119.571c0,1.735,1.407,3.141,3.141,3.141
				h18.552c1.734,0,3.141-1.406,3.141-3.141V571.672C356.534,569.935,355.127,568.53,353.393,568.53z"/>
			<path fill="#205081" d="M401.101,601.488c-9.393,0-20.824,1.481-29.119,3.775c-1.546,0.426-2.519,1.948-2.265,3.526l2.172,13.469
				c0.136,0.841,0.605,1.589,1.303,2.075c0.695,0.487,1.561,0.671,2.397,0.507c7.715-1.501,15.682-2.328,22.427-2.328
				c13.391,0,15.532,2.827,15.532,11.902v7.912h-19.888c-19.008,0-27.118,7.84-27.118,26.213c0,17.578,8.892,27.66,24.396,27.66
				c8.968,0,17.948-2.489,25.496-7.04l0.795,2.913c0.373,1.365,1.612,2.313,3.03,2.313h14.984c1.734,0,3.141-1.406,3.141-3.141
				v-56.465C438.384,610.51,428.279,601.488,401.101,601.488z M413.548,660.99v10.925c-3.075,1.64-8.647,3.987-15.351,3.987
				c-5.784,0-7.546-1.763-7.546-7.547c0-5.617,1.091-7.365,7.91-7.365H413.548z"/>
			<path fill="#205081" d="M484.876,638.012c-11.512-2.968-11.512-3.087-11.512-9.404c0-4.241,0.421-6.278,9.906-6.278
				c6.498,0,16.085,1.136,22.242,2.19c0.848,0.146,1.716-0.062,2.403-0.576c0.689-0.512,1.14-1.284,1.244-2.136l1.749-14.141
				c0.197-1.595-0.84-3.081-2.405-3.446c-7.12-1.659-17.025-2.732-25.233-2.732c-28.532,0-34.379,10.77-34.379,26.937
				c0,17.777,3.303,23.75,25.17,29.079c14.395,3.464,14.395,6.039,14.395,10.308c0,5.606-0.481,7.545-9.906,7.545
				c-7.587,0-16.371-1.181-24.096-3.241c-0.848-0.225-1.75-0.087-2.49,0.384c-0.741,0.466-1.251,1.226-1.409,2.088l-2.453,13.417
				c-0.283,1.551,0.623,3.067,2.121,3.552c8.425,2.734,20.522,4.641,29.416,4.641c27.628,0,33.29-11.565,33.29-28.932
				C512.93,648.088,509.523,644.535,484.876,638.012z"/>
			<path fill="#205081" d="M556.566,638.012c-11.512-2.968-11.512-3.087-11.512-9.404c0-4.241,0.421-6.278,9.906-6.278
				c6.499,0,16.085,1.136,22.243,2.19c0.847,0.146,1.715-0.062,2.403-0.576c0.688-0.512,1.139-1.284,1.244-2.136l1.749-14.141
				c0.196-1.595-0.84-3.081-2.404-3.446c-7.122-1.659-17.026-2.732-25.234-2.732c-28.531,0-34.379,10.77-34.379,26.937
				c0,17.777,3.303,23.75,25.171,29.079c14.395,3.464,14.395,6.039,14.395,10.308c0,5.606-0.479,7.545-9.906,7.545
				c-7.589,0-16.371-1.181-24.096-3.241c-0.848-0.225-1.75-0.087-2.49,0.384c-0.741,0.466-1.251,1.226-1.409,2.088l-2.453,13.417
				c-0.284,1.551,0.623,3.067,2.121,3.552c8.425,2.734,20.522,4.641,29.416,4.641c27.628,0,33.29-11.565,33.29-28.932
				C584.62,648.088,581.213,644.535,556.566,638.012z"/>
			<path fill="#205081" d="M616.609,568.525h-18.553c-1.734,0-3.141,1.406-3.141,3.14v16.405c0,1.736,1.407,3.141,3.141,3.141
				h18.552c1.734,0,3.141-1.406,3.141-3.141v-16.405C619.75,569.931,618.343,568.525,616.609,568.525z"/>
			<path fill="#205081" d="M616.609,603.304h-18.553c-1.734,0-3.141,1.405-3.141,3.139v84.799c0,1.735,1.407,3.141,3.141,3.141
				h18.552c1.734,0,3.141-1.406,3.141-3.141v-84.799C619.75,604.709,618.343,603.304,616.609,603.304z"/>
			<path fill="#205081" d="M664.783,601.488c-9.394,0-20.825,1.481-29.12,3.775c-1.545,0.426-2.519,1.948-2.265,3.526l2.172,13.469
				c0.136,0.841,0.605,1.589,1.303,2.075c0.696,0.487,1.561,0.671,2.398,0.507c7.713-1.501,15.68-2.328,22.426-2.328
				c13.391,0,15.532,2.827,15.532,11.902v7.912h-19.888c-19.008,0-27.118,7.84-27.118,26.213c0,17.578,8.892,27.66,24.396,27.66
				c8.968,0,17.948-2.489,25.496-7.04l0.795,2.913c0.373,1.365,1.613,2.313,3.03,2.313h14.984c1.734,0,3.141-1.406,3.141-3.141
				v-56.465C702.067,610.51,691.961,601.488,664.783,601.488z M677.231,660.99v10.925c-3.076,1.64-8.647,3.987-15.352,3.987
				c-5.784,0-7.546-1.763-7.546-7.547c0-5.617,1.091-7.365,7.91-7.365H677.231z"/>
			<path fill="#205081" d="M770.689,601.488c-9.835,0-23.228,3.39-34.545,8.702l-1.354-4.629c-0.392-1.339-1.62-2.258-3.014-2.258
				h-13.739c-1.734,0-3.141,1.405-3.141,3.139v84.799c0,1.735,1.407,3.141,3.141,3.141h18.552c1.734,0,3.141-1.406,3.141-3.141
				v-58.73c6.682-3.4,16.078-6.914,21.704-6.914c4.177,0,5.731,1.553,5.731,5.73v59.914c0,1.735,1.407,3.141,3.141,3.141h18.553
				c1.734,0,3.141-1.406,3.141-3.141v-62.274C792,610.733,784.83,601.488,770.689,601.488z"/>
		</g>
		<g>
			<path fill="#57AFE5" d="M181.655,529.538c-0.81-1.087-2.103-1.735-3.455-1.735c-0.699,0-1.389,0.177-1.992,0.507
				c-25.344,13.874-54.726,21.212-84.966,21.219c-30.24-0.007-59.62-7.345-84.964-21.218c-0.604-0.331-1.293-0.507-1.991-0.507
				c-1.354,0-2.647,0.647-3.455,1.731c-1.2,1.594-1.237,4.271,0.806,5.865c12.693,9.464,26.685,16.852,41.588,21.904
				c15.448,5.241,31.601,7.903,48.011,7.91h0.012c16.41-0.007,32.564-2.668,48.01-7.91c14.905-5.054,28.897-12.441,41.607-21.916
				C182.892,533.805,182.853,531.129,181.655,529.538z"/>
			<path fill="#57AFE5" d="M152.527,569.059c-0.603-0.459-1.329-0.697-2.065-0.697c-0.408,0-0.821,0.075-1.213,0.224
				c-7.346,2.809-14.806,4.943-21.615,6.529c-1.389,0.324-2.511,1.355-2.976,2.595c-4.961,13.589-17.628,26.527-30.918,40.08
				c-0.533,0.507-1.28,1.175-2.497,1.175c-1.214,0-1.953-0.646-2.497-1.175c-13.289-13.554-25.956-26.447-30.917-40.037
				c-0.466-1.238-1.588-2.269-2.975-2.594c-6.813-1.586-14.292-3.786-21.627-6.594c-0.395-0.15-0.807-0.224-1.217-0.224
				c-0.735,0-1.448,0.231-2.05,0.691c-0.941,0.718-1.43,1.883-1.318,3.001c1.126,11.3,5.59,22.347,13.648,33.923
				c7.575,10.884,17.454,20.958,27.006,30.7c17.6,17.951,34.226,34.906,35.685,54.567c0.132,1.773,1.608,3.148,3.39,3.148h20.677
				c0.931,0,1.821-0.383,2.464-1.058c0.641-0.675,0.979-1.58,0.933-2.512c-0.65-13.145-5.597-26.308-15.123-40.239
				c-1.996-2.922-4.134-5.763-6.371-8.544c-0.907-1.133-0.528-2.54,0.168-3.249c0.686-0.704,1.377-1.405,2.07-2.115
				c9.553-9.743,19.431-19.816,27.007-30.7c8.057-11.577,12.522-22.559,13.647-33.857
				C153.959,570.964,153.442,569.758,152.527,569.059z"/>
			<g>
				<path fill="#57AFE5" d="M69.055,651.948c-0.49-0.512-1.208-1.034-2.414-1.034c-1.543,0-2.459,1.067-2.805,1.596
					c-8.697,13.234-13.19,25.727-13.811,38.281c-0.046,0.925,0.295,1.845,0.936,2.521c0.642,0.672,1.544,1.059,2.473,1.059h20.643
					c1.776,0,3.272-1.39,3.403-3.161c0.45-6.05,2.333-12.115,5.762-18.488c1.188-2.205,0.265-4.276-0.419-5.161
					C79.421,663.137,75.254,658.417,69.055,651.948z"/>
			</g>
			<path fill="#57AFE5" d="M91.263,579.189c6.48,0,10.239-0.39,11.559-0.39c1.599,0,3.128,1.31,3.128,3.145
				c0,0.535-0.127,0.917-0.252,1.255c-0.86,2.299-4.776,10.565-12.068,17.656c-0.818,0.795-1.745,0.943-2.384,0.943h-0.008
				c-0.637,0-1.564-0.149-2.381-0.943c-7.292-7.091-11.21-15.357-12.068-17.656c-0.127-0.338-0.253-0.72-0.253-1.255
				c0-1.835,1.53-3.145,3.129-3.145c1.32,0,5.078,0.39,11.555,0.39H91.263z"/>
		</g>
	</g>
</g>
</svg>
