<?xml version="1.0" encoding="UTF-8" standalone="no"?>
<svg width="869px" height="192px" viewBox="0 0 869 192" version="1.1" xmlns="http://www.w3.org/2000/svg" xmlns:xlink="http://www.w3.org/1999/xlink" xmlns:sketch="http://www.bohemiancoding.com/sketch/ns">
    <!-- Generator: Sketch 3.2.2 (9983) - http://www.bohemiancoding.com/sketch -->
    <title>Slice 1</title>
    <desc>Created with Sketch.</desc>
    <defs>
        <path id="path-1" d="M0,0.07 L868.336,0.07 L868.336,191.94 L0,191.94"></path>
    </defs>
    <g id="Page-1" stroke="none" stroke-width="1" fill="none" fill-rule="evenodd" sketch:type="MSPage">
        <g id="bluecore-logo-cmyk_141013" sketch:type="MSLayerGroup">
            <g id="Page-1">
                <path d="M284.502,134.806 L240.556,134.806 L240.556,57.233 L279.341,57.233 C292.156,57.233 302.614,67.68 302.614,80.5 C302.614,85.155 301.271,89.502 298.89,93.216 C304.271,97.464 307.781,104.084 307.781,111.523 C307.781,124.352 297.335,134.806 284.502,134.806 M255.97,103.774 L255.97,119.285 L284.502,119.285 C288.753,119.285 292.269,115.766 292.269,111.523 C292.269,107.286 288.753,103.774 284.502,103.774 L255.97,103.774 M256.073,72.747 L256.073,88.253 L279.341,88.253 C283.575,88.253 287.092,84.746 287.092,80.5 C287.092,76.261 283.575,72.747 279.341,72.747 L256.073,72.747" id="Fill-1" fill="#287DB4" sketch:type="MSShapeGroup"></path>
                <path d="M381.429,134.806 L324.548,134.806 L324.548,57.233 L340.063,57.233 L340.063,119.285 L381.429,119.285 L381.429,134.806" id="Fill-2" fill="#287DB4" sketch:type="MSShapeGroup"></path>
                <path d="M428.124,134.806 C409.509,134.806 394.52,119.805 394.52,101.188 L394.52,57.233 L410.029,57.233 L410.029,101.188 C410.029,111.224 418.095,119.285 428.124,119.285 C438.166,119.285 446.221,111.224 446.221,101.188 L446.221,57.233 L461.743,57.233 L461.743,101.188 C461.743,119.805 446.644,134.806 428.124,134.806" id="Fill-3" fill="#287DB4" sketch:type="MSShapeGroup"></path>
                <path d="M540.028,134.806 L483.15,134.806 L483.15,57.233 L540.028,57.233 L540.028,72.747 L498.673,72.747 L498.673,88.253 L529.708,88.253 L529.708,103.774 L498.673,103.774 L498.673,119.285 L540.028,119.285 L540.028,134.806" id="Fill-4" fill="#287DB4" sketch:type="MSShapeGroup"></path>
                <path d="M595.085,134.806 C573.675,134.806 556.306,117.426 556.306,96.016 C556.306,74.604 573.675,57.233 595.085,57.233 C607.693,57.233 618.98,63.336 626,72.645 L627.56,74.717 L615.256,84.13 L613.695,82.056 C609.456,76.369 602.742,72.747 595.085,72.747 C582.258,72.747 571.811,83.196 571.811,96.016 C571.811,108.847 582.258,119.285 595.085,119.285 C602.742,119.285 609.456,115.672 613.695,109.98 L615.256,107.921 L627.56,117.322 L626,119.391 C618.98,128.8 607.693,134.806 595.085,134.806" id="Fill-5" fill="#287DB4" sketch:type="MSShapeGroup"></path>
                <path d="M678.785,134.806 C657.383,134.806 639.997,117.426 639.997,96.016 C639.997,74.604 657.383,57.233 678.785,57.233 C700.188,57.233 717.562,74.604 717.562,96.016 C717.562,117.426 700.188,134.806 678.785,134.806 M678.785,72.747 C665.947,72.747 655.518,83.196 655.518,96.016 C655.518,108.847 665.947,119.285 678.785,119.285 C691.614,119.285 702.062,108.847 702.062,96.016 C702.062,83.196 691.614,72.747 678.785,72.747" id="Fill-6" fill="#287DB4" sketch:type="MSShapeGroup"></path>
                <path d="M793.755,134.806 L775.249,134.806 L761.693,114.113 L749.49,114.113 L749.49,134.806 L733.964,134.806 L733.964,57.233 L762.417,57.233 C778.145,57.233 790.854,69.956 790.854,85.672 C790.854,95.917 785.485,104.806 777.423,109.877 L793.755,134.806 M749.49,72.747 L749.49,98.602 L762.417,98.602 C769.562,98.602 775.35,92.812 775.35,85.672 C775.35,78.541 769.562,72.747 762.417,72.747 L749.49,72.747" id="Fill-7" fill="#287DB4" sketch:type="MSShapeGroup"></path>
                <g id="Group-12">
                    <mask id="mask-2" sketch:name="Clip 9" fill="white">
                        <use xlink:href="#path-1"></use>
                    </mask>
                    <g id="Clip-9"></g>
                    <path d="M868.336,134.806 L811.451,134.806 L811.451,57.233 L868.336,57.233 L868.336,72.747 L826.969,72.747 L826.969,88.253 L857.999,88.253 L857.999,103.774 L826.969,103.774 L826.969,119.285 L868.336,119.285 L868.336,134.806" id="Fill-8" fill="#287DB4" sketch:type="MSShapeGroup" mask="url(#mask-2)"></path>
                    <path d="M86.666,134.797 C65.258,134.797 47.904,117.442 47.904,96.035 C47.904,88.975 49.794,82.355 53.092,76.652 L3.557,48.055 C1.362,51.854 0,56.135 0,59.979 L0,132.093 C0,135.935 1.362,140.218 3.558,144.017 C5.753,147.816 8.78,151.136 12.108,153.059 L74.562,189.117 C77.892,191.041 82.28,192 86.668,192 L86.668,134.797 L86.666,134.797" id="Fill-10" fill="#287DB4" sketch:type="MSShapeGroup" mask="url(#mask-2)"></path>
                    <path d="M169.776,48.055 L120.239,76.654 C123.539,82.355 125.428,88.975 125.428,96.035 C125.428,117.442 108.075,134.797 86.668,134.797 L86.668,192 C91.055,192 95.443,191.041 98.773,189.117 L161.227,153.059 C164.556,151.136 167.581,147.816 169.776,144.017 C171.969,140.218 173.332,135.935 173.332,132.093 L173.332,59.979 C173.332,56.135 171.971,51.854 169.776,48.055" id="Fill-11" fill="#36AFD8" sketch:type="MSShapeGroup" mask="url(#mask-2)"></path>
                </g>
                <path d="M86.666,57.275 C101.012,57.275 113.537,65.069 120.239,76.654 L169.776,48.055 C167.582,44.253 164.556,40.934 161.227,39.011 L98.773,2.954 C95.443,1.031 91.055,0.07 86.668,0.07 C82.28,0.07 77.892,1.031 74.562,2.954 L12.108,39.011 C8.78,40.934 5.752,44.253 3.557,48.055 L53.092,76.652 C59.795,65.069 72.319,57.275 86.666,57.275" id="Fill-13" fill="#2E94C6" sketch:type="MSShapeGroup"></path>
                <path d="M53.092,76.652 C49.794,82.355 47.904,88.975 47.904,96.035 C47.904,117.442 65.258,134.797 86.666,134.797 L86.667,134.797 L86.668,96.035 L53.092,76.652" id="Fill-14" fill="#2E94C6" sketch:type="MSShapeGroup"></path>
                <path d="M86.668,134.797 C108.075,134.797 125.428,117.442 125.428,96.035 C125.428,88.975 123.539,82.355 120.239,76.654 L86.668,96.035 L86.668,134.797" id="Fill-15" fill="#287DB4" sketch:type="MSShapeGroup"></path>
                <path d="M86.666,57.275 C72.319,57.275 59.795,65.069 53.092,76.652 L86.668,96.035 L120.239,76.654 C113.537,65.069 101.012,57.275 86.666,57.275" id="Fill-16" fill="#36AFD8" sketch:type="MSShapeGroup"></path>
            </g>
        </g>
    </g>
</svg>
