<?xml version="1.0" encoding="utf-8"?>
<!-- Generator: Adobe Illustrator 22.0.0, SVG Export Plug-In . SVG Version: 6.00 Build 0)  -->
<svg version="1.1" id="Layer_1" xmlns="http://www.w3.org/2000/svg" xmlns:xlink="http://www.w3.org/1999/xlink" x="0px" y="0px"
	 viewBox="0 0 571.1 172.2" enable-background="new 0 0 571.1 172.2" xml:space="preserve">
<rect id="buddy_logo_padding" x="95.5" y="2.3" fill="none" width="379.9" height="168"/>
<g>
	<path fill="#1A86FD" d="M570.6,64.5l-23,66.1c-6.7,19.1-13.1,26.3-29.7,26.3c-6.3,0-11.3-0.9-14.6-1.6l2.4-18.5
		c2.1,0.2,5.8,0.6,9.1,0.6c4,0,6.3-1.5,7.6-5.6l0.5-1.6l-22.8-65.7h26.2l9,41h0.5l8.7-41C544.5,64.5,570.6,64.5,570.6,64.5z"/>
	<path fill="#1A86FD" d="M338.9,130.8h-20.5l-3.2-7.5c-4.1,5.5-10.4,9-19.3,9c-14.3,0-21.8-8.2-21.8-22V64.5h26v40.7
		c0,4.7,1.5,7.1,5.5,7.1c3.1,0,6.2-1.7,7.6-3.4V64.5h25.7C338.9,64.5,338.9,130.8,338.9,130.8z"/>
	<path fill="#1A86FD" d="M495.2,130.8h-22.5l-1.7-7.6c-3.2,4.5-9.7,9.1-19.5,9.1c-17.5,0-26.7-12.2-26.7-34.5
		c0-24.2,14.1-34.8,29-34.8c5.7,0,11.4,2.1,15.7,5.7V40.9h25.9V130.8z M469.3,86.7c-1.9-2-4.9-3.5-8.5-3.5c-5.8,0-8.8,4.7-8.8,14.4
		c0,8.7,2.1,14.9,8.8,14.9c3.5,0,6.6-1.3,8.5-3.2C469.3,109.2,469.3,86.7,469.3,86.7z"/>
	<path fill="#1A86FD" d="M417.3,130.8h-22.5l-1.7-7.6c-3.2,4.5-9.7,9.1-19.5,9.1c-17.5,0-26.7-12.2-26.7-34.5
		c0-24.2,14.1-34.8,29-34.8c5.7,0,11.4,2.1,15.7,5.7V40.9h25.9V130.8z M391.4,86.7c-1.9-2-4.9-3.5-8.5-3.5c-5.8,0-8.8,4.7-8.8,14.4
		c0,8.7,2.1,14.9,8.8,14.9c3.5,0,6.6-1.3,8.5-3.2C391.4,109.2,391.4,86.7,391.4,86.7z"/>
	<path fill="#1A86FD" d="M229.1,130.5h-37.9V40.6h39.4c18.2,0,32.7,6.9,32.7,23.6c0,9.4-5,17.2-14.7,19.2v0.3
		c12.4,2.1,17.9,11.6,17.9,20.9C266.6,125,251.4,130.5,229.1,130.5z M218.2,93.7v16H230c5.8,0,9.1-3.5,9.1-8.2c0-5-3.9-7.7-9.5-7.7
		C229.6,93.7,218.2,93.7,218.2,93.7z M228.4,61.3h-10.2v13.6h9.8c5.1,0,9.3-1.6,9.3-7.1C237.3,63,234,61.3,228.4,61.3z"/>
	<g>
		<g>
			<g>
				<g>
					<defs>
						<path id="SVGID_1_" d="M68.2,3.8c4.1-2.4,9.1-2.4,13.2,0C95.6,12,128.6,31,142.8,39.2c4.1,2.4,6.6,6.7,6.6,11.5
							c0,16.3,0,54.4,0,70.8c0,4.7-2.5,9.1-6.6,11.5c-14.1,8.2-47.1,27.2-61.3,35.4c-4.1,2.4-9.1,2.4-13.2,0
							c-14.1-8.2-47.1-27.2-61.3-35.4c-4.1-2.4-6.6-6.7-6.6-11.5c0-16.3,0-54.4,0-70.8c0-4.7,2.5-9.1,6.6-11.5
							C21.1,31,54.1,12,68.2,3.8z"/>
					</defs>
					<clipPath id="SVGID_2_">
						<use xlink:href="#SVGID_1_"  overflow="visible"/>
					</clipPath>
					<g clip-path="url(#SVGID_2_)">
						<path fill="#0DA7FE" d="M68.2,3.8c4.1-2.4,9.1-2.4,13.2,0C95.6,12,128.6,31,142.8,39.2c4.1,2.4,6.6,6.7,6.6,11.5
							c0,16.3,0,54.4,0,70.8c0,4.7-2.5,9.1-6.6,11.5c-14.1,8.2-47.1,27.2-61.3,35.4c-4.1,2.4-9.1,2.4-13.2,0
							c-14.1-8.2-47.1-27.2-61.3-35.4c-4.1-2.4-6.6-6.7-6.6-11.5c0-16.3,0-54.4,0-70.8c0-4.7,2.5-9.1,6.6-11.5
							C21.1,31,54.1,12,68.2,3.8z"/>
						<path fill="#1A67FD" d="M0.3,129.1L39,86l35.8,86C74.9,172.1,0.3,129.1,0.3,129.1z"/>
						<path fill="#0DA7FE" d="M39,86L0.9,42.7l-0.5,86.4C0.3,129.1,39,86,39,86z"/>
						<path fill="#05BBFF" d="M39,86L74.9,0l-74,42.7C0.9,42.7,39,86,39,86z"/>
						<path fill="#00C9FF" d="M74.9,0l74.5,129.1L39,86"/>
						<path fill="#1A86FD" d="M74.9,172.2l74.5-43.2L39,86C39,86,74.9,172.2,74.9,172.2z"/>
						<path fill="#05BBFF" d="M149.4,129.1V43L74.9,0L149.4,129.1z"/>
					</g>
				</g>
			</g>
			<g>
				<path fill="#1A67FD" fill-opacity="0.5" d="M90.6,78.8l9.5,9.5l-4.7,4.7l-4.8,4.8L64,124.3l-9.5-9.5l26.6-26.6L54.5,61.6
					l9.5-9.5C64,52.2,90.6,78.8,90.6,78.8z"/>
				<g>
					<path fill="#D6FFFF" d="M100.1,84l-9.5-9.5l-36.1,36.1l9.5,9.5L100.1,84z"/>
					<path fill="#D6FFFF" d="M64,47.9l-9.5,9.5l36.1,36.1l9.5-9.5C100.1,84,64,47.9,64,47.9z"/>
				</g>
			</g>
		</g>
	</g>
</g>
</svg>
