<svg xmlns="http://www.w3.org/2000/svg" width="177" height="84" viewBox="0 0 177 84">
	<rect x="0" y="0" width="177" height="84" fill="#2c5b9c"/>

	<g transform="translate(15, 10)">
		<path fill="#fff" d="M92.22,24.35c0.5-0.69,0.89-1.52,1.16-2.48c0.27-0.96,0.4-2.02,0.4-3.16c0-1.2-0.11-2.28-0.32-3.25c-0.21-0.96-0.55-1.78-1.01-2.47s-1.04-1.21-1.74-1.57c-0.7-0.36-1.52-0.54-2.48-0.54c-0.68,0-1.39,0.16-2.14,0.49c-0.74,0.32-1.41,0.87-2,1.65l-0.22-1.64H80v20.88l4.41-0.47v-6.77c0.9,1.04,2.08,1.55,3.55,1.55c0.9,0,1.71-0.2,2.42-0.6C91.1,25.59,91.71,25.04,92.22,24.35z M88.5,22.28c-0.47,0.7-1.1,1.05-1.89,1.05c-0.9,0-1.64-0.43-2.21-1.3v-6.18c0.31-0.54,0.68-0.95,1.09-1.25c0.41-0.29,0.86-0.44,1.34-0.44c0.37,0,0.7,0.07,0.99,0.21c0.29,0.14,0.54,0.38,0.74,0.72c0.2,0.34,0.36,0.81,0.47,1.41c0.11,0.6,0.16,1.35,0.16,2.26C89.2,20.4,88.97,21.58,88.5,22.28z"/>
		<path fill="#fff" d="M104.66,21.73c-0.29,0.44-0.64,0.81-1.05,1.1c-0.4,0.29-0.85,0.43-1.35,0.43c-0.53,0-0.88-0.17-1.03-0.51c-0.16-0.34-0.23-0.77-0.23-1.29V11.38h-4.41V22c0,1.4,0.32,2.52,0.96,3.34c0.64,0.82,1.68,1.23,3.11,1.23c0.88,0,1.7-0.19,2.47-0.55c0.76-0.37,1.39-0.92,1.89-1.64l0.19,1.72h3.86V11.38h-4.41V21.73z"/>
		<path fill="#fff" d="M118.79,23.09c-0.46,0-0.8-0.14-1.03-0.43c-0.23-0.29-0.34-0.78-0.34-1.48v-6.74h2.98l0.47-3.05h-3.44V7.67l-4.41,0.53v3.19h-2.18v3.05h2.18v6.71c0,0.85,0.07,1.61,0.22,2.29c0.15,0.68,0.41,1.24,0.78,1.71s0.88,0.82,1.5,1.07c0.62,0.25,1.4,0.38,2.34,0.38c0.64,0,1.33-0.1,2.07-0.29c0.73-0.2,1.38-0.49,1.93-0.87l-1.49-2.83C119.78,22.92,119.25,23.09,118.79,23.09z"/>
		<path fill="#fff" d="M128.61,10.88c-1.14,0-2.14,0.21-2.99,0.62c-0.85,0.42-1.58,0.98-2.16,1.69c-0.59,0.71-1.03,1.54-1.32,2.5s-0.44,1.97-0.44,3.06c0,1.15,0.15,2.2,0.45,3.15c0.3,0.95,0.76,1.77,1.38,2.47s1.39,1.23,2.33,1.62c0.94,0.39,2.03,0.58,3.28,0.58c1.16,0,2.21-0.19,3.15-0.58c0.95-0.39,1.78-0.87,2.49-1.44l-1.85-2.53c-0.62,0.48-1.21,0.82-1.75,1.03c-0.54,0.2-1.11,0.3-1.69,0.3c-0.88,0-1.61-0.25-2.19-0.76c-0.58-0.51-0.94-1.36-1.09-2.56h9.04c0.04-0.22,0.06-0.48,0.07-0.76s0.01-0.56,0.01-0.82c0-2.4-0.6-4.27-1.79-5.59C132.35,11.55,130.71,10.88,128.61,10.88z M126.16,17.37c0.09-1.22,0.35-2.11,0.79-2.68c0.43-0.56,1-0.85,1.69-0.85c0.44,0,0.81,0.09,1.12,0.26c0.3,0.17,0.55,0.42,0.73,0.72c0.18,0.31,0.32,0.67,0.4,1.11c0.08,0.43,0.12,0.91,0.12,1.43H126.16z"/>
		<path fill="#fff" d="M146.27,10.93c-0.23-0.04-0.47-0.05-0.73-0.05c-0.83,0-1.57,0.28-2.23,0.85c-0.66,0.56-1.17,1.34-1.52,2.34l-0.33-2.75h-3.91v14.72h4.41v-7.4c0.11-0.48,0.25-0.93,0.41-1.36c0.17-0.42,0.36-0.79,0.59-1.09s0.51-0.54,0.84-0.72c0.33-0.18,0.72-0.26,1.16-0.26c0.48,0,0.92,0.06,1.32,0.19l0.71-4.3C146.74,11.02,146.5,10.97,146.27,10.93z"/>
		<path fill="#fff" d="M76.52,46.51c-0.14-0.25-0.21-0.65-0.21-1.21v-5.74c0-1.72-0.48-3.02-1.45-3.9c-0.96-0.88-2.56-1.32-4.78-1.32c-0.77,0-1.64,0.09-2.62,0.28c-0.97,0.19-1.93,0.46-2.87,0.83l0.99,2.94c0.75-0.26,1.46-0.45,2.13-0.58c0.67-0.13,1.23-0.2,1.67-0.2c0.99,0,1.69,0.16,2.08,0.47c0.4,0.31,0.59,0.91,0.59,1.78v0.53h-1.68c-2.28,0-4.01,0.43-5.21,1.3s-1.79,2.11-1.79,3.72c0,0.68,0.11,1.31,0.33,1.87c0.22,0.56,0.54,1.05,0.96,1.46c0.42,0.41,0.94,0.73,1.54,0.96c0.61,0.23,1.29,0.35,2.04,0.35c0.88,0,1.72-0.16,2.51-0.47c0.79-0.31,1.45-0.81,1.98-1.5c0.35,0.61,0.81,1.06,1.39,1.35c0.58,0.29,1.31,0.47,2.19,0.57l0.91-2.91C76.91,46.95,76.66,46.76,76.52,46.51z M72.07,45.28c-0.28,0.52-0.62,0.92-1.02,1.19c-0.4,0.28-0.84,0.42-1.32,0.42c-0.57,0-0.99-0.16-1.27-0.47c-0.28-0.31-0.41-0.75-0.41-1.3c0-0.72,0.24-1.27,0.72-1.63c0.48-0.37,1.32-0.56,2.54-0.56h0.77L72.07,45.28z"/>
		<path fill="#fff" d="M89.85,42.13c-0.39-0.36-0.85-0.67-1.41-0.93s-1.17-0.49-1.85-0.69c-0.68-0.19-1.23-0.35-1.64-0.5c-0.41-0.15-0.73-0.29-0.97-0.43c-0.23-0.14-0.38-0.28-0.45-0.43c-0.07-0.15-0.11-0.31-0.11-0.5c0-0.35,0.17-0.63,0.5-0.83c0.33-0.2,0.82-0.31,1.46-0.31c0.61,0,1.2,0.1,1.79,0.31c0.59,0.2,1.15,0.47,1.68,0.8l1.79-2.61c-0.59-0.44-1.37-0.83-2.33-1.17c-0.96-0.33-2.01-0.5-3.13-0.5c-1.03,0-1.93,0.12-2.7,0.36c-0.77,0.24-1.41,0.57-1.93,0.98s-0.9,0.9-1.17,1.46c-0.27,0.55-0.4,1.14-0.4,1.75c0,1.2,0.37,2.17,1.12,2.91c0.74,0.74,1.77,1.29,3.07,1.64c0.72,0.2,1.29,0.37,1.72,0.51c0.43,0.14,0.77,0.29,1.01,0.44c0.24,0.16,0.39,0.32,0.47,0.5c0.07,0.18,0.11,0.38,0.11,0.62c0,0.42-0.19,0.76-0.56,1c-0.38,0.24-0.9,0.36-1.58,0.36c-0.73,0-1.42-0.13-2.07-0.4c-0.64-0.27-1.25-0.62-1.82-1.07l-2.18,2.44c0.72,0.67,1.6,1.2,2.66,1.6c1.06,0.4,2.24,0.59,3.54,0.59c0.9,0,1.75-0.11,2.56-0.33c0.81-0.22,1.51-0.54,2.09-0.96c0.59-0.42,1.06-0.93,1.4-1.53c0.35-0.6,0.52-1.29,0.52-2.07c0-0.68-0.11-1.27-0.32-1.76C90.54,42.92,90.24,42.49,89.85,42.13z"/>
		<path fill="#fff" d="M99.3,34.35c-1.14,0-2.14,0.21-2.99,0.62c-0.85,0.42-1.57,0.98-2.16,1.69c-0.59,0.71-1.03,1.54-1.32,2.5c-0.29,0.95-0.44,1.97-0.44,3.06c0,1.14,0.15,2.2,0.45,3.15c0.3,0.95,0.76,1.77,1.38,2.47c0.61,0.69,1.39,1.24,2.33,1.62c0.94,0.39,2.03,0.58,3.28,0.58c1.16,0,2.21-0.19,3.15-0.58c0.95-0.39,1.78-0.87,2.49-1.44l-1.85-2.53c-0.62,0.48-1.21,0.82-1.75,1.03c-0.54,0.2-1.11,0.3-1.69,0.3c-0.88,0-1.61-0.25-2.19-0.76c-0.58-0.51-0.94-1.36-1.09-2.56h9.04c0.04-0.22,0.06-0.48,0.07-0.76c0.01-0.29,0.01-0.56,0.01-0.82c0-2.4-0.6-4.27-1.79-5.59C103.04,35.01,101.39,34.35,99.3,34.35zM96.85,40.84c0.09-1.22,0.35-2.11,0.78-2.68c0.43-0.56,1-0.85,1.7-0.85c0.44,0,0.81,0.09,1.12,0.26c0.3,0.18,0.55,0.42,0.73,0.72c0.18,0.3,0.32,0.67,0.4,1.11c0.08,0.44,0.12,0.91,0.12,1.43H96.85z"/>
		<path fill="#fff" d="M39.73,3.4c-1.92-1.11-4.11-1.97-6.5-2.54C30.85,0.29,28.24,0,25.48,0c-3.45,0-6.8,0.66-9.93,1.95C12.4,3.24,9.67,5.06,7.42,7.36c-2.3,2.37-4.13,5.21-5.44,8.45C0.67,19.06,0,22.71,0,26.69c0,5.11,1.54,9.1,4.57,11.85c3.01,2.75,7.32,4.14,12.81,4.14c2.01,0,3.61-0.1,4.75-0.3c1.14-0.2,2.37-0.5,3.64-0.87c0.99-0.29,2.05-0.67,3.13-1.14c1.06-0.45,1.99-0.84,2.78-1.16c0.18-0.07,0.32-0.23,0.36-0.42l2.32-9.54c0.04-0.18,0-0.37-0.11-0.52c-0.11-0.15-0.29-0.23-0.48-0.23h-1.06c-0.14,0-0.27,0.05-0.38,0.13c-1.87,1.5-3.88,2.75-5.97,3.71c-2.06,0.95-4.3,1.43-6.64,1.43c-2.55,0-4.51-0.66-5.8-1.97c-1.3-1.3-1.95-3.49-1.95-6.49c0-4.78,1.25-8.77,3.71-11.84C18.15,10.4,21.2,8.91,25,8.91c2.15,0,4.04,0.41,5.61,1.22c1.6,0.82,3.24,2.13,4.87,3.89c0.11,0.12,0.27,0.19,0.44,0.19h1.17c0.28,0,0.52-0.19,0.59-0.46l2.34-9.68C40.08,3.81,39.96,3.54,39.73,3.4z"/>
		<path fill="#fff" d="M55.92,42.23c2.15-0.82,3.81-1.92,4.97-3.31c1.41-1.69,2.13-3.84,2.13-6.41c0-3.07-1.37-5.49-4.07-7.18c-2.61-1.63-6.4-2.46-11.27-2.46H33.21c-0.28,0-0.53,0.2-0.59,0.47l-1.01,4.39c0.03-0.02,0.06-0.04,0.09-0.07c0.32-0.26,0.72-0.4,1.13-0.4h1.06c0.56,0,1.08,0.25,1.43,0.7c0.35,0.44,0.47,1.01,0.33,1.56l-2.32,9.54c-0.14,0.57-0.54,1.04-1.09,1.26c-0.77,0.31-1.68,0.69-2.76,1.15c-0.38,0.16-0.76,0.31-1.13,0.46l-4.88,21.31c-0.04,0.18,0,0.37,0.12,0.52S23.88,64,24.06,64h17.17c6.34,0,11.34-1.23,14.84-3.64c3.58-2.47,5.39-5.95,5.39-10.34c0-2.3-0.62-4.11-1.83-5.4C58.72,43.64,57.47,42.84,55.92,42.23z M47.72,54.08C46.21,55,44,55.47,41.15,55.47h-4.4l2-8.73h4.87c2.24,0,3.88,0.3,4.88,0.89c0.91,0.54,1.35,1.41,1.35,2.65C49.85,51.96,49.15,53.21,47.72,54.08z M49.38,37.44c-1.14,0.79-2.78,1.19-4.88,1.19H40.6l1.66-7.23h4.12c1.52,0,2.71,0.24,3.53,0.71c0.73,0.42,1.08,1.07,1.08,2.03C50.99,35.61,50.46,36.69,49.38,37.44z"/>
		<path fill="#fff" d="M54.65,18.7c0-1.18-0.17-2.25-0.5-3.22c-0.33-0.96-0.8-1.78-1.42-2.47c-0.62-0.68-1.37-1.21-2.26-1.58c-0.89-0.37-1.9-0.55-3.02-0.55c-1.12,0-2.13,0.19-3.02,0.57c-0.89,0.38-1.65,0.91-2.27,1.59c-0.62,0.68-1.1,1.51-1.43,2.48c-0.33,0.97-0.5,2.04-0.5,3.2c0,1.08,0.13,2.05,0.37,2.92h4.58c-0.25-0.71-0.37-1.69-0.37-2.92c0-1.61,0.22-2.77,0.66-3.49c0.44-0.72,1.1-1.08,1.98-1.08c0.88,0,1.54,0.36,1.97,1.08c0.43,0.72,0.65,1.88,0.65,3.47c0,1.29-0.13,2.29-0.4,3.01c0.04,0,0.08,0.01,0.13,0.01c1.56,0.04,3,0.17,4.32,0.38C54.47,21.12,54.65,19.99,54.65,18.7z"/>
		<path fill="#fff" d="M76.08,12.04c-0.63-0.77-1.6-1.15-2.91-1.15c-0.75,0-1.5,0.18-2.23,0.54c-0.73,0.36-1.43,0.91-2.09,1.65c-0.57-1.46-1.73-2.19-3.47-2.19c-0.77,0-1.51,0.17-2.2,0.53s-1.37,0.91-2.01,1.66l-0.33-1.69H57v11.41c1.15,0.37,2.18,0.82,3.07,1.38c0.5,0.31,0.93,0.66,1.34,1.02v-9.31c0.35-0.54,0.72-0.96,1.1-1.26c0.38-0.3,0.76-0.46,1.13-0.46c0.4,0,0.7,0.12,0.9,0.37c0.19,0.25,0.29,0.68,0.29,1.29v10.29h4.41V15.88c0.33-0.54,0.69-0.96,1.08-1.26s0.77-0.46,1.16-0.46c0.4,0,0.7,0.13,0.88,0.39c0.18,0.26,0.28,0.71,0.28,1.36v10.21h4.41V15.29C77.03,13.89,76.71,12.8,76.08,12.04z"/>
	</g>
</svg>
