<svg id="Layer_1" xmlns="http://www.w3.org/2000/svg" viewBox="0 0 100 33"><style>.st0{fill:#44474b}.st1{fill:#37a5d3}</style><g id="XMLID_41_"><g id="XMLID_4_"><path id="XMLID_18_" class="st0" d="M53.6 31.1c-2.1 0-3.8-.2-5.2-.6-1.3-.4-2.5-1.2-3.4-2.3-.5-.6-.9-.8-1.2-.8-.7 0-2.3 1.1-4.1 4.1l-2.2-1.9c1.7-2.7 3.5-4.2 4.9-4.9v-9.9h-4.6v-2.9h7.5v12.7c0 .2.2.5.5.9.8.9 1.5 1.5 2.3 2 1 .5 2.4.8 4.3.8 1.8 0 4 .1 6.6.1 1.6 0 3.2 0 4.9-.1 1.6 0 2.9-.1 3.8-.2l-.8 3.1h-7.5c-1.8 0-3.7 0-5.8-.1zM46 6.8L43.8 9c-1.3-1.6-3-3.3-5.4-5.2l2.1-2c2.3 1.7 4 3.3 5.5 5zm5.8-2c-.5-.9-1-1.7-1.6-2.4l2.9-1.1c.7 1 1.3 2.2 1.9 3.5h3.6c.8-1.1 1.4-2.3 2-3.5l3 1.1c-.5.9-1.1 1.7-1.6 2.5h4.9v2.9h-9c-.2.7-.4 1.3-.7 2H65v16.3H50.5c-.8 0-1.5-.7-1.5-1.5V9.8h5.2c.3-.7.5-1.3.6-2H47v-3h4.8zM62 14.5v-1.9H51.9v1.9H62zm0 4.3V17H51.9v1.8H62zm0 2.5H51.9v1.5c0 .3.3.6.6.6H62v-2.1z"/><path id="XMLID_10_" class="st0" d="M78.5 14.7L76.3 17c-1.4-1.5-3.4-3.1-6-4.8l2.2-2.1c2.4 1.5 4.4 3 6 4.6zm.4 6.2c-1.4 3.8-3.2 7.6-5 10.8l-3.2-1.4c2.1-3.3 3.9-6.9 5.3-10.5l2.9 1.1zm.7-14.1L77.4 9c-1.5-1.5-3.7-3.2-6.4-5l2.2-2.2c2.5 1.8 4.6 3.4 6.4 5zM100 27.5v3.2H83.9c-1 0-1.8-.8-1.8-1.8V2.6h17.6v3.1H85.2v21c0 .5.4.9.9.9H100z"/></g><g id="XMLID_40_"><circle id="XMLID_76_" class="st1" cx="16.4" cy="16.5" r="7.9"/><g id="XMLID_81_"><path id="XMLID_82_" class="st1" d="M28 16.5c0 2.7 1.4 5.2 3.5 6.6.9-2 1.4-4.2 1.4-6.6 0-4.6-1.9-8.7-4.9-11.7v11.7z"/><path id="XMLID_86_" class="st1" d="M26.1 22.7c-2 3.2-5.6 5.3-9.7 5.3C10 28 4.9 22.8 4.9 16.5 4.9 10.1 10.1 5 16.4 5c3.1 0 5.8 1.2 7.9 3.1v-6c-2.3-1.3-5-2-7.9-2H0v16.4c0 9.1 7.4 16.4 16.4 16.4 5.4 0 10.2-2.7 13.2-6.7-1.3-.9-2.5-2.1-3.5-3.5z"/></g></g></g></svg>