<?xml version="1.0" encoding="UTF-8" standalone="no"?>
<svg width="502px" height="202px" viewBox="0 0 502 202" version="1.1" xmlns="http://www.w3.org/2000/svg" xmlns:xlink="http://www.w3.org/1999/xlink" xmlns:sketch="http://www.bohemiancoding.com/sketch/ns">
    <!-- Generator: Sketch 3.3.2 (12043) - http://www.bohemiancoding.com/sketch -->
    <title>Artboard 1</title>
    <desc>Created with Sketch.</desc>
    <defs></defs>
    <g id="Page-1" stroke="none" stroke-width="1" fill="none" fill-rule="evenodd" sketch:type="MSPage">
        <g id="Artboard-1" sketch:type="MSArtboardGroup" fill="#4BA000">
            <g id="domain_logo" sketch:type="MSLayerGroup" transform="translate(1.000000, 45.000000)">
                <path d="M37.1875,7.00961538 L0,7.02530364 L0,112.544534 L37.1875,112.544534 C52.921875,112.544534 67.1875,107.132085 77.359375,97.3112348 C87.40625,87.6315789 92.9375,74.2965587 92.9375,59.7535425 L92.9375,59.4711538 C92.9375,44.9595142 87.40625,31.6715587 77.34375,22.0703441 C67.171875,12.3593117 52.921875,7.00961538 37.1875,7.00961538 L37.1875,7.00961538 Z M37.1875,22.0232794 C48.8125,22.0232794 58.78125,25.8198381 66.03125,32.9893725 C72.890625,39.8294534 76.65625,49.3365385 76.65625,59.7692308 L76.65625,60.0673077 C76.65625,82.125 60.421875,97.5465587 37.171875,97.562247 L15.84375,97.562247 L15.828125,22.0232794 L37.171875,22.0232794 L37.1875,22.0232794 Z" id="Shape" sketch:type="MSShapeGroup"></path>
                <path d="M140.78125,31.8284413 C129.734375,31.8284413 119.515625,36.1584008 112,44.0339069 C104.609375,51.7525304 100.53125,62.0597166 100.53125,73.041498 L100.53125,73.3552632 C100.53125,96.291498 118.09375,114.270243 140.5,114.270243 L140.5,114.270243 C163.15625,114.254555 180.921875,96.1503036 180.921875,73.041498 L180.921875,72.7591093 C180.921875,61.840081 176.890625,51.5956478 169.578125,43.9397773 C162.109375,36.1270243 151.890625,31.812753 140.796875,31.812753 L140.78125,31.8284413 Z M158.46875,92.0399798 C153.921875,97.0759109 147.640625,99.8527328 140.78125,99.8527328 C126.9375,99.8527328 116.078125,88.0865385 116.078125,73.0571862 L116.078125,72.7747976 C116.078125,57.5885628 126.578125,46.1204453 140.5,46.1204453 C154.453125,46.1204453 165.375,57.9493927 165.375,73.041498 L165.375,73.3552632 C165.375,80.4777328 162.921875,87.1138664 158.46875,92.0399798 L158.46875,92.0399798 Z" id="Shape" sketch:type="MSShapeGroup"></path>
                <path d="M469.859375,31.7970648 C460.5,31.7970648 453.046875,35.0915992 447.125,41.8375506 L447.125,33.3972672 L431.859375,33.3972672 L431.859375,112.513158 L447.125,112.513158 L447.125,67.5192308 C447.125,55.062753 455.203125,46.3714575 466.765625,46.3714575 C478.359375,46.3714575 484.734375,53.5723684 484.734375,66.6563765 L484.734375,112.49747 L500,112.49747 L500,63.9109312 C500,44.3947368 488.171875,31.7813765 469.859375,31.7813765 L469.859375,31.7970648 Z" id="Shape" sketch:type="MSShapeGroup"></path>
                <path d="M355.359375,32.236336 C345.453125,32.236336 337.5,34.1503036 327.90625,38.8254049 L326.109375,39.7039474 L330.84375,53.0389676 L333.046875,51.9407895 C340.296875,48.3952429 346.828125,46.8107287 354.21875,46.8107287 C366.828125,46.8107287 373.34375,52.6624494 373.5625,64.1933198 C367.6875,62.6715587 361.859375,61.6831984 353.515625,61.6831984 C343.765625,61.6831984 335.53125,63.9893725 329.71875,68.319332 C323.453125,73.0101215 320.15625,79.9286437 320.171875,88.3218623 L320.171875,88.6199393 C320.171875,105.359312 334.96875,114.11336 349.578125,114.11336 C360.953125,114.11336 368.71875,109.453947 373.578125,104.904352 L373.578125,112.513158 L388.703125,112.513158 L388.703125,64.6639676 C388.703125,54.6548583 385.921875,46.7479757 380.453125,41.1472672 C374.6875,35.2327935 366.234375,32.236336 355.34375,32.236336 L355.359375,32.236336 Z M367.46875,95.6169028 C363.40625,98.8800607 357.796875,100.684211 351.671875,100.684211 C343.671875,100.684211 335.5625,96.354251 335.5625,88.0551619 L335.5625,87.757085 C335.5625,79.7560729 342.6875,74.9868421 354.625,74.9868421 C362.703125,74.9868421 368.8125,76.2889676 373.734375,77.6224696 L373.734375,82.8466599 C373.734375,87.9139676 371.5625,92.3380567 367.46875,95.6325911 L367.46875,95.6169028 Z" id="Shape" sketch:type="MSShapeGroup"></path>
                <path d="M402.578125,33.3972672 L417.859375,33.3972672 L417.859375,112.513158 L402.578125,112.513158 L402.578125,33.3972672 L402.578125,33.3972672 Z" id="Shape" sketch:type="MSShapeGroup"></path>
                <path d="M410.21875,0.938259109 C404.125,0.938259109 399.15625,5.92712551 399.15625,12.0455466 C399.15625,18.1639676 404.125,23.152834 410.21875,23.152834 C416.328125,23.152834 421.28125,18.1639676 421.28125,12.0455466 C421.28125,5.92712551 416.3125,0.938259109 410.21875,0.938259109 L410.21875,0.938259109 Z" id="Shape" sketch:type="MSShapeGroup"></path>
                <path d="M276.28125,28.1573887 L250.078125,45.3674089 L223.875,28.1573887 L204.8125,40.6923077 L204.8125,33.444332 L190.078125,33.444332 L190.078125,112.591599 L205.3125,112.591599 L205.3125,58.3572874 L223.890625,46.1518219 L242.46875,58.3572874 L242.484375,112.591599 L257.734375,112.591599 L257.734375,58.3572874 L276.28125,46.1361336 L294.84375,58.3415992 L294.84375,112.591599 L310.078125,112.591599 L310.0625,50.4347166 L276.28125,28.1573887 Z" id="Shape" sketch:type="MSShapeGroup"></path>
            </g>
        </g>
    </g>
</svg>