<svg width="562.36" height="150" viewBox="0 0 562.36 150" xmlns="http://www.w3.org/2000/svg">
  <path d="M45.566 0c-11.86 0-21.792 9.612-21.792 21.792 0 11.86 9.612 21.792 21.792 21.792 11.86 0 21.814-9.612 21.814-21.792C67.38 9.932 57.746 0 45.566 0zm303.95 14.499c-9.317 0-11.437.027-11.445 4.723v25.812c-2.407-1.54-5.675-2.548-10.061-2.548-12.147 0-21.748 10.81-21.748 36.006 0 27.613 9.604 31.414 23.023 31.414 8.773 0 15.419-1.27 20.233-3.823zm21.595.373c-4.522 0-6.503 3.056-6.503 7.645-.146 5.949 2.158 7.876 5.8 8.019 4.236-.012 6.357-3.073 6.503-8.282 0-5.343-1.413-7.382-5.8-7.382zm-325.54.506c3.526 0 6.415 2.889 6.415 6.414s-2.89 6.415-6.415 6.415-6.393-2.889-6.393-6.415 2.867-6.414 6.393-6.414zm502.41 6.107c-9.336 0-11.489.015-11.489 3.58v19.333h-7.184c-2.407 0-2.548 1.023-2.548 8.897h9.754V89.96c0 11.438.013 20.079 13.422 20.079 5.511 0 12.148-1.115 12.148-4.152 0-2.587-.407-5.395-.835-6.744-2.958 1.124-4.245 1.91-8.216 1.91-5.061 0-5.053-4.615-5.053-10.126V53.252h12.148c2.25 0 2.241-.856 2.241-8.875H547.98zM10.971 33.414c-2.404-.4-4.968.073-7.052 1.516-4.167 2.884-5.147 8.97-2.262 13.137 9.295 13.462 25.647 20.207 27.57 20.848-7.373 5.449-15.39 12.822-18.915 22.759-3.847 10.578-3.847 22.115 0 32.05 3.846 9.937 10.915 17.622 20.21 22.43 10.258 5.128 23.06 5.128 34.6 0 12.18-5.45 19.874-15.385 21.156-26.603 1.282-11.86-4.475-22.423-14.412-26.911-10.256-4.488-21.796-1.29-29.81 8.326-3.206 4.167-2.564 9.931 1.603 13.137s9.932 2.563 13.137-1.604c2.244-2.885 4.817-3.84 7.381-2.878 1.924.962 3.836 3.53 3.515 8.018-.32 4.488-4.169 8.649-10.259 11.533-6.41 2.885-13.447 2.894-18.255.33-5.128-2.564-8.982-7.073-11.226-12.522-1.602-4.167-2.884-10.892 0-18.585 2.244-6.09 7.682-11.528 17.618-17.618a263.035 263.035 0 0 1 12.83-7.381c-.321.32 22.764-12.187 32.38-25.33 3.206-4.166 1.927-10.251-2.24-13.136s-9.954-1.927-13.16 2.24C70.894 43.26 66.09 47.435 60.64 50c-4.488 1.923-9.292 2.886-14.741 3.207-5.45-.32-9.937-1.284-14.104-3.208-5.77-2.564-10.574-6.739-14.741-12.829-1.443-2.083-3.682-3.356-6.086-3.756zm211.84 9.029l-.198.044c-13.16 0-22.599 1.648-24.736 3.031-1.012.653-1.252 1.911-1.252 3.317 0 .9.12 4.453 1.582 6.635 4.386-1.8 13.602-2.944 20.013-2.944 4.386 0 7.49 1.53 7.49 7.513v10.698c-2.834-1.27-7.199-1.647-10.741-1.647-9.055 0-18.387 3.166-18.387 20.848 0 19.346 9.907 20.115 20.255 19.99 9.178 0 15.827-2.047 19.639-4.195 0 0 .9-18.074.9-40.333v-7.425c0-11.473-5.375-15.531-14.564-15.531zm-59.072.044c-13.857 0-23.462 7.006-23.462 23.923 0 8.098 2.122 15.068 8.612 18.893-4.106 3.037-8.763 8.203-8.898 11.577-.146 3.261 3.104 5.523 8.48 6.985-5.961 3.487-10.698 8.645-10.698 14.72 0 6.636 3.616 14.52 22.737 14.52 18.784 0 27-10.025 27-20.936 0-10.123-8.555-13.7-17.553-14.938-10.573-1.327-17.772-1.707-17.772-3.844 0-1.8 1.803-3.934 3.603-5.734 1.8.338 3.92.484 6.283.484 16.422 0 22.869-8.779 22.869-22.276 0-6.355-2.14-11.195-5.514-14.367 1.968.37 3.676.615 5.228.615 2.44 0 3.998-1.275 3.998-4.042l.264.263c0-2.294-.58-3.933-1.142-4.833h-16.981c-2.396-.63-5.219-1.01-7.052-1.01zm111.73 0c-7.637 0-17.797 1.901-23.308 4.196l.154.044v61.423c11.81 0 11.467.009 11.467-2.241V53.933c3.15-1.777 7.53-2.417 10.567-2.417 7.536 0 8.326 3.818 8.326 13.862v42.64c11.923 0 11.819-.004 11.819-2.175v-39.96c0-17.546-1.816-23.396-19.024-23.396zm169.04 0c-7.626 0-17.819 1.912-23.33 4.196l-.176.044v61.423c11.698 0 11.467.009 11.467-2.241V53.933c3.15-1.777 7.527-2.417 10.676-2.417 7.424 0 8.326 3.818 8.326 13.862v42.64c12.035 0 11.93-.004 11.93-2.175v-39.96c0-17.546-1.797-23.396-18.894-23.396zm55.557 0c-12.597 0-25.088 3.948-25.088 37.016 0 25.982 9.445 30.404 22.605 30.404 10.573 0 19.464-3.034 19.464-4.833 0-2.79-.336-7.249-1.01-9.161-4.82 2.41-10.415 3.922-17.223 3.932-7.486-.05-11.374-2.442-11.797-17.662 6.748 0 19.696-.255 29.48-2.02 1.125-4.59 1.56-11.082 1.56-16.807 0-13.61-6.07-20.87-17.992-20.87zm-123.57 1.91c-9.317 0-11.722.027-11.731 4.724v58.918c11.585 0 11.731-.004 11.731-2.175zm-213.16 5.735c6.861 0 10.347 3.934 10.347 13.225 0 11.068-3.275 17.179-10.698 17.179h-.11c-8.66 0-10.457-5.75-10.457-14.894 0-11.203 4.845-15.51 10.918-15.51zm335.54 1.384h.022c6.054.01 7.894 3.84 8.04 12.983 0 2.407-.096 5.603-.659 7.886-4.949 1.282-13.733 1.53-19.244 1.406.896-17.592 6.029-22.229 11.841-22.276zm-167.31.175c2.958 0 4.658.455 6.503 1.692v45.342c-2.25 1.395-5.233 1.889-8.348 1.889-6.636 0-10.611-2.706-10.611-23.176 0-20.808 6.236-25.747 12.456-25.747zm-112.56 25.153c2.025 0 4.835.243 6.634 1.143 0 9.11-.33 21.155-.33 21.155l-.109.087c-1.237 1.26-4.72 2.022-7.645 2.022-5.511 0-9.007-.502-9.007-11.445 0-11.191 4.833-12.961 10.457-12.961zm180.56 17.684c-4.59 0-7.14 3.357-7.14 7.294l.022.088c0 4.454 1.775 7.25 7.118 7.25 4.443 0 7.118-3.314 7.118-7.25 0-4.454-1.91-7.382-7.118-7.382zm-242.33 10.808c.855.135 1.69.242 2.702.242 12.44.765 16.103 2.425 16.103 8.15 0 4.454-4.4 9.798-14.433 9.798-9.617 0-11.863-3.178-11.863-7.25 0-4.071 3.397-8.274 7.491-10.94z"/>
</svg>
