<?xml version="1.0" encoding="utf-8"?>
<!-- Generator: Adobe Illustrator 19.0.1, SVG Export Plug-In . SVG Version: 6.00 Build 0)  -->
<svg version="1.1" id="Layer_1" xmlns="http://www.w3.org/2000/svg" xmlns:xlink="http://www.w3.org/1999/xlink" x="0px" y="0px"
	 viewBox="0 0 1745.1 513.3" enable-background="new 0 0 1745.1 513.3" xml:space="preserve">
<path d="M77.3,246.3L171,136.1c0,0,18.7-17.8,38.2-4.5c11.7,9.8,18.4,15.8,18.4,15.8s15.1,13,19.6,42.3c2.8,18,0,202.7,0,202.7
	s-0.3,17.5-9,10.5c-7.8-7-57.8-84-57.8-84s-16.8-21.3-44.8-29s-55-15.5-55-15.5S60.9,265.6,77.3,246.3z"/>
<path fill="#331580" d="M434.9,246.3l-93.7-110.3c0,0-18.7-17.8-38.2-4.5c-11.8,9.8-18.4,15.8-18.4,15.8s-15.1,13-19.6,42.3
	c-2.8,18,0,202.7,0,202.7s0.3,17.5,9,10.5c7.8-7,57.8-84,57.8-84s16.8-21.3,44.8-29s55-15.5,55-15.5S451.3,265.6,434.9,246.3z"/>
<path d="M256.7,0C114.9,0,0,114.9,0,256.7c0,141.8,114.9,256.7,256.7,256.7s256.7-114.9,256.7-256.7C513.3,114.9,398.4,0,256.7,0z
	 M254.7,492C125.8,492,21.3,387.5,21.3,258.7S125.8,25.3,254.7,25.3C383.5,25.3,488,129.8,488,258.7S383.5,492,254.7,492z"/>
<g>
	<path d="M78.4,208.2C101.1,130.1,173.2,73,258.7,73c88.5,0,162.6,61.2,182.4,143.6c5.9,6.2,13.9,15.2,24.8,28.2
		C458.7,136.2,368.4,50.3,258,50.3C149.9,50.3,61.1,132.6,50.7,238C57.3,230.2,68.2,217.8,78.4,208.2z"/>
	<path d="M443.9,290.8c-14.4,89.3-91.9,157.5-185.2,157.5c-93.2,0-170.4-67.9-185.1-156.9l-22.2-6.2C64.4,387.7,151.9,467,258,467
		c106.4,0,194.1-79.7,206.8-182.7L443.9,290.8z"/>
</g>
<g>
	<rect x="778.3" y="181" width="25.3" height="151.8"/>
	<polygon points="854.2,180.5 828.9,180.5 828.9,332.8 926.1,332.8 926.1,307.5 854.2,307.5 	"/>
	<polygon points="976.7,180.5 951.4,180.5 951.4,332.8 1048.7,332.8 1048.7,307.5 976.7,307.5 	"/>
	<rect x="1367" y="181" width="25.3" height="151.8"/>
	<path d="M725.4,181.2h-51.3v20.2c0-8.9-8.4-20.2-25.8-20.2H575v151.6h25.4V206.7h34.9c14.7,0,15.4,11,15.4,19.2v106.9H676V206.7
		h36.5c12.3,0,15.4,6.7,15.4,19.2v106.9h25.2V212.7C753.1,194.9,750.3,181.2,725.4,181.2z"/>
	<path d="M1090.2,290.6v-1.7c0,0,0,0,0,0v-5.1l99.2-46.1v-18c0-24.5-15.2-38.8-39.9-38.8h-84.6v111.9c0,9.6,3.1,18.3,8.4,25.3
		c8.1,10.4,18,14.6,32.9,14.6h84.9v-25.3c0,0-71.5,0-83.5,0C1095.6,307.5,1090.2,302.3,1090.2,290.6z M1090.2,206.3h58.5
		c11.5,0,15.5,3.4,15.5,13.2v2.3l-73.9,34.3V206.3z"/>
	<path d="M1299,181h-82.6v151.8h25.3V223.2c0-6.7,0-16.9,0-16.9h57.6c11.9,0,16,5.2,17.1,10.6v115.9h25.3V220.1
		C1341.7,194.8,1326.6,181,1299,181z"/>
	<path d="M1517.7,290.6c0,12.1-4.2,16.9-17.2,16.9H1443V181h-25.3v151.8h82.6c27.5,0,42.7-13.8,42.7-39.1V181h-25.3V290.6z"/>
	<path d="M1717.4,181.2h-51.3v20.2c0-8.9-8.4-20.2-25.8-20.2H1567v151.6h25.3V206.7h35c14.7,0,15.4,11,15.4,19.2v106.9h25.3V206.7
		h36.4c12.3,0,15.4,6.7,15.4,19.2v106.9h25.3V212.7C1745.1,195,1742.2,181.2,1717.4,181.2z"/>
</g>
</svg>
