<svg id="Layer_1" data-name="Layer 1" xmlns="http://www.w3.org/2000/svg" viewBox="0 150 1251.8 200"><defs><style>.cls-1{fill:#32324b;}.cls-2{fill:#00d2ff;}.cls-3{fill:#ff4b19;}</style></defs><title>Weaveworks</title><path class="cls-1" d="M56.41,112.39l101.91-91a99.72,99.72,0,0,0-27-15.15L56.41,73.12Z" transform="translate(0.49)"/><path class="cls-1" d="M27.12,99.28-.49,123.94a99.31,99.31,0,0,0,12,28.56l15.62-14Z" transform="translate(0.49)"/><path class="cls-2" d="M110.92,24.42V1a99.87,99.87,0,0,0-29.29.08V50.58Z" transform="translate(0.49)"/><path class="cls-2" d="M110.92,162V63.69L81.63,89.85v109a99.86,99.86,0,0,0,32.44-.43l78.42-70A100.11,100.11,0,0,0,196.6,100a101.31,101.31,0,0,0-.95-13.69Z" transform="translate(0.49)"/><path class="cls-3" d="M110.92,133.13,189.49,63a100.23,100.23,0,0,0-15.11-25.78L110.92,93.86Z" transform="translate(0.49)"/><path class="cls-3" d="M81.63,120,56.41,142.56V8.43A100.24,100.24,0,0,0,27.12,28.12V171.88a100.47,100.47,0,0,0,22.22,16.26l32.29-28.85Z" transform="translate(0.49)"/><path class="cls-1" d="M341,120.4l18.68-70.1h25.09l-27.76,97.51H327.51L311,82.15l-16.54,65.66H264.88L237.12,50.3h25.09l18.68,70.1L299.4,50.3h23.13Z" transform="translate(0.49)"/><path class="cls-1" d="M477.34,115.78c-2.84,19.39-17.79,33.27-43.41,33.27-27.23,0-47.34-16.37-47.34-49.46,0-33.28,20.82-50.54,47.34-50.54,29.35,0,44.84,21.53,44.84,50.36v5.16H411.51c0,10.85,4.44,24.55,22.06,24.55,9.79,0,17.44-4.8,19.39-13.88Zm-24-28.47c-.89-13.53-9.61-18.51-19.57-18.51-11.39,0-20.11,6.94-21.35,18.51Z" transform="translate(0.49)"/><path class="cls-1" d="M550.58,84.64V81.26c0-7.65-3.2-12.64-17.61-12.64-18,0-18.51,10-18.51,13.35H491.33c0-14.41,6.05-32.92,42.35-32.92,34.7,0,40.92,17.26,40.92,31.32v53.74a69.42,69.42,0,0,0,.54,9.6l.71,4.1H551.29V138c-6.93,6.94-16.54,11-30.25,11-19.21,0-33.8-11.21-33.8-30.6C487.24,96,508.41,91.22,517,89.8Zm0,18.33-9.43,1.42c-5.16.89-11.39,1.78-15.12,2.49-4.1.71-7.65,1.6-10.32,3.74a9.63,9.63,0,0,0-3.74,8c0,2.85,1.07,11.75,14.41,11.75,7.83,0,14.77-2.85,18.51-6.59,4.8-4.8,5.69-10.85,5.69-15.65Z" transform="translate(0.49)"/><path class="cls-1" d="M643.65,147.81H611.08l-32-97.51h26.33l22.42,74.55,22.6-74.55H676Z" transform="translate(0.49)"/><path class="cls-1" d="M767.67,115.78c-2.85,19.39-17.79,33.27-43.42,33.27-27.22,0-47.33-16.37-47.33-49.46,0-33.28,20.82-50.54,47.33-50.54,29.36,0,44.85,21.53,44.85,50.36v5.16H701.83c0,10.85,4.45,24.55,22.07,24.55,9.79,0,17.44-4.8,19.39-13.88Zm-24-28.47C742.76,73.78,734,68.8,724.08,68.8c-11.39,0-20.11,6.94-21.36,18.51Z" transform="translate(0.49)"/><path class="cls-1" d="M803.61,147.81l-28.29-95h15.3l22.24,80.43L835.1,52.79h16.55l22.42,80.6,22.24-80.6h15l-28.65,95H865L843.11,69.16,821.4,147.81Z" transform="translate(0.49)"/><path class="cls-1" d="M960.2,149.05c-25.8,0-43.6-16.37-43.6-48.75,0-32,17.8-48.76,43.6-48.76,25.62,0,43.42,16.37,43.42,48.76C1003.62,132.86,985.82,149.05,960.2,149.05Zm0-12.28c16.37,0,28.47-10,28.47-36.47,0-26.34-12.1-36.48-28.47-36.48-16.55,0-28.65,10-28.65,36.48S943.65,136.77,960.2,136.77Z" transform="translate(0.49)"/><path class="cls-1" d="M1063.23,67.74c-17.09,0-29,5.87-29,28.29v51.78h-14.59v-95h14.42V69.16c6.22-12.1,18.86-16.37,28.82-16.37h6.76V67.74Z" transform="translate(0.49)"/><path class="cls-1" d="M1165.9,52.79,1131.37,88l36.3,59.79h-17.25l-29.36-49.47-22.6,23.84v25.63h-14.59V16.13h14.59V103.5l49.29-50.71Z" transform="translate(0.49)"/><path class="cls-1" d="M1233.69,78.77c-.89-11.57-10.14-14.95-21.88-14.95-10.15,0-22.78,3.2-22.78,14.41,0,24.2,62.28,2,62.28,40.75,0,13-7.47,30.07-40.75,30.07-25.44,0-37.54-13-38.08-30.25h16c.17,10.5,6.94,18,23.84,18,19.4,0,24.2-8.36,24.2-16.9,0-18-32.92-10.32-50.89-20.46-6.58-3.74-11.21-9.61-11.21-20.29,0-15.66,14.77-27.58,37.54-27.58,28.3,0,36.66,16.55,37.19,27.23Z" transform="translate(0.49)"/></svg>